/* XPM */
static char *_3ad844c4b6b45a08feeb711bf15a94emH1jsT8LGp93sIHc[] = {
/* columns rows colors chars-per-pixel */
"64 64 63 1 ",
"  c #4C362D",
". c #463229",
"X c #271B0F",
"o c #463128",
"O c #463228",
"+ c #271A0F",
"@ c #271A10",
"# c #473229",
"$ c #281B11",
"% c #291B11",
"& c #23170C",
"* c #4D372E",
"= c #281A10",
"- c #412E25",
"; c #26190E",
": c #412E24",
"> c #25190E",
", c #26190F",
"< c #261A10",
"1 c #22160B",
"2 c #23180C",
"3 c #22170B",
"4 c #261A0E",
"5 c #261A0F",
"6 c #23170B",
"7 c #23180D",
"8 c #24180D",
"9 c #412D23",
"0 c #25190D",
"q c #412D24",
"w c #473228",
"e c #281B0F",
"r c #271A0E",
"t c #281B10",
"y c #402D23",
"u c #21160B",
"i c #422E24",
"p c #23170D",
"a c #4B352C",
"s c #26190D",
"d c #21160A",
"f c #20150A",
"g c #1D1308",
"h c #21150A",
"j c #422F26",
"k c #1D1307",
"l c #422E25",
"z c #422F25",
"x c #1B1106",
"c c #1C1207",
"v c #22160C",
"b c #22170C",
"n c #402D24",
"m c #1B1207",
"M c #453128",
"N c #432F26",
"B c #271B10",
"V c #432F25",
"C c #21160C",
"Z c #453127",
"A c #453027",
"S c #291C11",
"D c white",
/* pixels */
"      .Xo     O+O     oX.     O+o     o@#     .$.     #%.     o&",
"     *#XO*   *#+O*   *OX.*   *O+.*   *o=#*   *#$.*   *#%#*   *.&",
"...#.#-;:#.#.#:>:#.#.#:;-#.#.#:>:#.#.#:,-#.#.#-<-#.#.#-@-#.#.#:1",
"+++2+X+34X+2+X535X+2+X56+X+2+X53+X+7+X5&+X+7+X5&5X+8+X+&5X+7+X+1",
"oO:;9OoOoO:;:OoOoO90:OoOoO9;:OoOoOq;qOoOoO:,qOoOoOq,qOoOoOq,:OoO",
"**#Xw*****#e#*****wr#*****wX#*****#=#*****#$#*****#$#*****#t#***",
".#-;:#.#.#:;-#.#.#:>:#.#.#:;-#.#.#:,-#.#.#-,:#.#.#:,:#.#.#-,:#.#",
"XX+&+X+2+X+6+X+2+X+6+X+2+X+6+X+2+X+&+X+&+X+&+X+8+X+&+X+7+X+&+X+&",
"oooOoO:;qOoOoO:0qOoOoOy>:OoOoOq>qOoOoOy;:OoOoO:@:OoOoO:+:OoOoOq1",
"******#eO*****#+#*****#e#*****#+.*****O=#*****#%#*****#%#*****#&",
"OOO.O.:;:.O.O.:;:.O.O.:;:.O.O.:>:.O.O#:,-.O.O.:<:.O.O.-@:.O.O.:u",
"XXr&rer&rer&rer&rer&rer&rer&rer&rer&rer&rer&rer&rer&rer&rer&rer3",
"##-;:#####:;i#####:0:#####:>:#####:,:#####:,:#####:,:#####:,:###",
"**#Xw*****#e#*****wr#*****wX#*****#=#*****#$#*****#$#*****#t#***",
"O#:;:#O#O#:;:#O#O#:0:#O#O#:>:#O#O#:;:#O#O#:,:#O#O#:,:#O#O#:,:#O#",
"++4&4+4&4+4&4+4&r+4&4+r&4+464+4&4+4&4+4&4+4&4+4&4+4&4+4&4+4&4+43",
"OOOOOO:;qOOOOO:>:OOOOO:;:OOOOO:>:OOOOOq,:OOOOO:<:OOOOO:@:OOOOO:1",
"******#eO*****#+#*****#e#*****#+.*****O=#*****#%#*****#%#*****#&",
"oooOoO:;yOoOoO:;qOoOoOq;:OoOoOq>qOoOoOq,:OoOoO:<:OoOoO:@:OoOoOq1",
"rr;64r4&4r;64r4&4r46;r4&4r46;r4&4r43;r4&4r;&;r4&4r4&;r4&4r;&4r43",
"O.:;:.OOO.:;:.OOO.:0:.OOO.:;:.OOO.:,q.OOO.:,:.OOO.:,:.OOO.:,:.OO",
"**#Xw*****#e#*****wr#*****wX#*****#=#*****#$#*****#$#*****#t#***",
"oO:;:OOOOO:;:OOOOOq0:OOOOO:>:OOOOO:,qOOOOO:,qOOOOO:,:OOOOOq,:OOO",
"XX+&+X+&+X+&+X+&+X+&+X+&+X+&+X+6+X+&+X+&+X+7+X+&+X+7+X+&+X+7+X+1",
"......-;:.....:>:.....:;:.....:>q#...#:,-.....-<:#....-@-....#:1",
"******#eO*****#+#*****#e#*****w+.*****O=#*****#%#*****#%#*****#&",
"OOOOOO:;:OOOOO:0:OOOOO:;:OOOOO:>qOOOOOq,:OOOOO:<:OOOOO:+:OOOOO:1",
"+X56+X+&+X+6+X+&+X+6+X+2+X+65X+&+X5&+X+8+X+&5X+7+X5&+X+p+X+&5X+&",
"..-;:.....:;:.....:0:.....:;:.....:,-.....-,q.....:,:.....:,:...",
"**#Xw** **#e#** **wr#** **wX#** **#=#** **#$#** **#$#** **#t#** ",
"O#:;:##a##:;i##a##:s:##a##:;:##a##:,:##a##:5:##a##:5:##a##:,:##a",
"ddfgfh+j+hfgfh+j+hfkfh5j+hfgfd;l+hfgfd;l+hfgfh4z4hfgfh+l;hfgfh5O",
"xxxcxxv-vxxcxxv-vxxcxxv-bxxcxxhn1xxmxxdq1xxmxxd:uxxmxx1qdxxmxxuM",
"&&&b&b%N$b&b&b$N$b&b&b$N$b&b&b+ztb&b&b@Ntb&b&btNtb&b&btN@b&b&bt#",
"::lMl:lMl:lMl:lMl:lMl:lMl:lMl:lMl:lMl:lMl:lMl:lMl:lMl:lMl:lMl:lo",
"1utN+u1u1u@z@u1u1uBN@u1u1u+z@u1u1u5zBu1u1u+V+u1u1u+V+u1u1u@z5u1u",
"xxv:uxxxxx1nCxxxxxb-1xxxxxuqvxxxxxd:1xxxxxu:uxxxxxd:uxxxxxvqdxxx",
"&b%Ntb&b&btN$b&b&b$N$b&b&btN$b&b&b=N$b&b&btNtb&b&btNtb&b&b$N=b&b",
"qqlZ-qlMlqlZ-qlMlq-ZlqlMlq-ZlqlMlq-ZlqlMlqlZlqlolqlZlqlMlqlZ-qlo",
"uuuuuu@N@uuuuu@N@uuuuu@Ntuuuuu;z@uuuuu5z@uuuuu+V+uuuuu@z5uuuuu@#",
"xxxxxxv-vxxxxxv-vxxxxxv-bxxxxxhn1xxxxxdq1xxxxxd:uxxxxx1qdxxxxxuM",
"vvv1v1tNt1v1v1tN$1v1v1tN$1v1v1+zt1v1v1+Vt1v1v1@V@1v1v1tV+1v1v1t#",
"qq-Z-n-M-n-Z-n-M-n-A-n-M-n-Z-n-M-n-Z-n-M-n-Z-n-M-n-Z-n-M-n-Z-n-o",
"bv$N@vbvbvtN$vbvbv$Ntvbvbv@N$vbvbv@N$vbvbvtNtvbvbvtNtvbvbv$N@vbv",
"xxv:uxxxxx1nCxxxxxb-1xxxxxuqvxxxxxd:1xxxxxd:uxxxxxd:uxxxxxvqhxxx",
"&b$Ntb&b&b$N$b&b&b$N$b&b&btN$b&b&b@N$b&b&btNtb&b&btNtb&b&b$N@b&b",
"--lMl-lMl-lMl-lMl-lMl-lMl-lMl-lMl-lMz-lMz-lMl-lMl-lMl-zMl-zMl-lo",
"&&&b&b%N$b&b&b$N$b&b&b$N%b&b&b@ztb&b&b@V$b&b&btVtb&b&b$VBb&b&bt.",
"xxxxxxv-vxxxxxv-vxxxxxC-bxxxxxfn1xxxxxdq1xxxxxd:dxxxxx1qdxxxxxuM",
"pppbpb$N$bpbpb$N$bpbpb$N%bpbpb@z$bpbpbBz$bpbpbtVtbpbpb$zBbpbpbt.",
"--lMl-lMl-lMz-lMl-lMz-lMl-lMz-lMl-lMl-lMl-lol-lMl-lol-lMl-lMl-lo",
"bvtN@vbvbvtNtvbvbv$Ntvbvbv@Ntvbvbv+NtvbvbvtNtvbvbvtNtvbvbvtN+vbv",
"xxv:uxxxxx1nCxxxxxb-1xxxxxuqvxxxxxd:1xxxxxu:uxxxxxd:uxxxxxvqdxxx",
"vv$N@vvvvvtjBvvvvv$Ntvvvvv@N$vvvvv+Vtvvvvv@NBvvvvvBNBvvvvvtz+vvv",
"--jol-lMl-joz-lMl-zoj-lMl-loj-lMl-loj-lMl-loj-lMl-joz-lMl-jol-lo",
"pp&&&&%N$&&&&&$N$&&&&&$N%&&&&&=z$&p&&&tN$&p&&&tNt&&&&&$zt&&&p&t#",
"xxxxxxv-vxxxxxv-vxxxxxv-bxxxxxhn1xxxxxdq1xxxxxd:uxxxxx1qdxxxxxuM",
"111u1utN@u1u1u@j@u1u1u@Ntu1u1u5z@u1u1u+z@u1u1u+V+u1u1u@z+u1u1u@#",
"qqlZlqlMlqlZlqlMlqlZlqlMlqlZlqlMlqlZlqlMlqlZlqlMlqlZlqlMlqlZlqlo",
"&b$Ntb&b&btj$b&b&b$Ntb&b&btN$b&b&b@N$b&b&btNtb&b&btNtb&b&b$N@b&b",
"xxv:uxxxxx1nCxxxxxb-1xxxxxuqvxxxxxd:vxxxxxu:uxxxxxu:uxxxxxvqdxxx",
"uu@N+uuuuu+z@uuuuuBN+uuuuu+V@uuuuu4VBuuuuu+V+uuuuu+V+uuuuu@z4uuu",
"nn:Z:n:Z:n:Z:n:Z:n:Z:n-Z:n:Z:n:Z:n:Z:n:Z:n:Z:n:Z:n:Z:n:Z:n:Z:n:o",
"pp&&&&SN$&&&&&%NS&&&&&SNS&&&&&tN%&&&&&tNS&&&&&tNt&&&&&SNt&&&&&%#"
};
