/* XPM */
static char *_3d77d10ab3b4cb9c2d1ac4c5176d80dIIWipr2VLzGDUwuP[] = {
/* columns rows colors chars-per-pixel */
"64 64 187 2 ",
"   c #2F3923",
".  c #33342D",
"X  c #363531",
"o  c #3B3B35",
"O  c #3D3D3A",
"+  c #403F3B",
"@  c #3D4334",
"#  c #3F4835",
"$  c #3F423B",
"%  c #414536",
"&  c #434E37",
"*  c #42423D",
"=  c #48453F",
"-  c #444B3C",
";  c #455137",
":  c #46533A",
">  c #49543D",
",  c #49583C",
"<  c #3E4141",
"1  c #444542",
"2  c #484643",
"3  c #464944",
"4  c #4A4A45",
"5  c #444748",
"6  c #464A49",
"7  c #4C4D4A",
"8  c #504F4C",
"9  c #4D5444",
"0  c #4E5A44",
"q  c #4E514C",
"w  c #4F5B4A",
"e  c #515447",
"r  c #525D45",
"t  c #52524D",
"y  c #545A4C",
"u  c #4D4F50",
"i  c #4E5151",
"p  c #545552",
"a  c #585755",
"s  c #565A54",
"d  c #5A5A55",
"f  c #59575B",
"g  c #565B5A",
"h  c #5C5D5A",
"j  c #605F5D",
"k  c #546244",
"l  c #576B47",
"z  c #56634D",
"x  c #59644D",
"c  c #5B6A4D",
"v  c #5D734D",
"b  c #566151",
"n  c #5B6354",
"m  c #5C6B54",
"M  c #57625B",
"N  c #5D625C",
"B  c #5E6C5C",
"V  c #5E7255",
"C  c #5E715B",
"Z  c #626C56",
"A  c #61635D",
"S  c #69675F",
"D  c #626C5B",
"F  c #627354",
"G  c #63745C",
"H  c #6B775D",
"J  c #657A5C",
"K  c #6B7C5D",
"L  c #5F5E63",
"P  c #5D5F6D",
"I  c #615F62",
"U  c #605F6A",
"Y  c #605F71",
"T  c #5E6463",
"R  c #5E6964",
"E  c #5E626A",
"W  c #5E6968",
"Q  c #5D7061",
"!  c #5F6170",
"~  c #636563",
"^  c #686765",
"/  c #636A65",
"(  c #6A6B65",
")  c #62656B",
"_  c #686769",
"`  c #646C6B",
"'  c #6A6C6C",
"]  c #716F63",
"[  c #647363",
"{  c #697466",
"}  c #657863",
"|  c #6A7B64",
" . c #66716D",
".. c #6A736D",
"X. c #667968",
"o. c #6B7A6C",
"O. c #727266",
"+. c #747C67",
"@. c #73756D",
"#. c #7A776D",
"$. c #727A6D",
"%. c #7B7C6E",
"&. c #646671",
"*. c #666D71",
"=. c #6A6E73",
"-. c #6D6E79",
";. c #706F7B",
":. c #667271",
">. c #6C7373",
",. c #6D7974",
"<. c #6E7479",
"1. c #6F7979",
"2. c #727573",
"3. c #787772",
"4. c #737A75",
"5. c #7B7C74",
"6. c #71757C",
"7. c #747B7B",
"8. c #7A7D7B",
"9. c #6D8361",
"0. c #748363",
"q. c #768B60",
"w. c #73846C",
"e. c #79826E",
"r. c #7C8B6D",
"t. c #7F916F",
"y. c #6F8073",
"u. c #758275",
"i. c #7B8374",
"p. c #7B8975",
"a. c #76817B",
"s. c #7B827D",
"d. c #7E897A",
"f. c #818276",
"g. c #82837C",
"h. c #88877B",
"j. c #848B7D",
"k. c #8A8B7E",
"l. c #849274",
"z. c #87917B",
"x. c #8A947D",
"c. c #8D987E",
"v. c #93937F",
"b. c #6F7080",
"n. c #747681",
"m. c #767C81",
"M. c #797D83",
"N. c #7B7F8A",
"B. c #807F89",
"V. c #778281",
"C. c #7C8382",
"Z. c #7E8881",
"A. c #7D838A",
"S. c #828583",
"D. c #898783",
"F. c #848A85",
"G. c #8A8D84",
"H. c #83858A",
"J. c #858B8A",
"K. c #8B8E8A",
"L. c #908F86",
"P. c #908F8F",
"I. c #879081",
"U. c #8C9284",
"Y. c #8D9982",
"T. c #8D928B",
"R. c #929485",
"E. c #949986",
"W. c #989C87",
"Q. c #92948B",
"!. c #98978B",
"~. c #94998B",
"^. c #9B9B8C",
"/. c #8B8C91",
"(. c #8D9391",
"). c #949391",
"_. c #939591",
"`. c #969992",
"'. c #9A9A91",
"]. c #9B9C93",
"[. c #9E9D92",
"{. c #A09F93",
"}. c #9BA087",
"|. c #9FA18E",
" X c #9FA096",
".X c #A3A293",
"XX c #A1A198",
/* pixels */
"5 6 u 6 1 1 1 1 $ 1 1 3 q 3 3 4 4 3 q q 3 1 1 O o o + + + O o o 1 t p t t 8 8 4 % - 2 4 - = $ O 1 7 7 O $ < < 3 3 5 5 6 1 1 3 3 ",
"i h ~ / ( ] O.O.( p 3 y b z z b c x s 3 7 t p j ^ #.f.f.3.~ o 4 B.L.Q.L.L.L.K.i.0 k $.i.f.e.@.@.f.k.8.3 q / >.4.4.4.5.8.5.6.T 5 ",
"T.'.[. X{.{.^.^.Q.N A j.x.l.l.l.q.t.$.4 ' Q.'.'.).).P.K.D.3.1 L K.K.K.Z.4.a.s.5.9 D U.T.!.!.E.G.~.).F.i ' Q.U.U.T.Q.[.[. X`.a.i ",
"_.(.(.K.H.S.u.u.4.t D w.o.X.X.G V J ..a @.).P.J.B.B.8.;.=.' 9 ' J.D.M.2.<.8.>.` 1 M u.d.g.a.4.X. .4.>.7 / 9.9.u.C.C.C.Z.a.1.` i ",
"/.1.<.n.b.<.>.` ~ q T } Q } } } J o. .8 ^ 3.M.M.n.b.-.Y _ _ e ^ 1.<.*.*.<.<.Q ` 7 N  . . .>.>.:.`  .` 4 D J } 1.7.1.:.:. . .M u ",
"A.>.7.n.n.n.6.' ' t n [ | u.w.u.,.,./ 4 A ,.7.n.b.-.Y _ ' _ 4 h  .*.*.-.=.` R ` 7 T ` T ' ,.m.<.W W ` 1 R `  .<.<.<.<.>.:.:.g u ",
"V.:.<.n.n.n.6.=.' 4 s [ o.$.o.4.3.../ t d ..' =.-.&.&._ ' j 2 a  .*.=.=.-.-.` / q s R W W >.<.<. .' ~ 5 g :.W ! ! ! ! *.' ' g q ",
"/ T T ^ _ _ _ ^ A 4 p / ^ A A A ~ j h t 7 h j h j j j j j 8 1 4 g g d f h h d p 4 < s g g N T h N h p 1 i T T g f L h L h h u 6 ",
"s a i 4 4 3 4 2 4 1 7 h a p p t a d a 8 2 1 4 8 8 p p i p q 7 6 6 3 1 $ O O O 1 < 3 3 < * $ * + + 1 < * < 1 6 7 6 u u u i u p p ",
"T.U.F.i.N = 7 ^ 3.3.5.D.g.g.g.2.d j ( ] S ^ #.g.D.2.p h 8.F.J.G.G.k.G.Z.s O s J d.i.i.a.5.4.N 1 h >.3.4.2.2.2.4.7.T u 8.F.G.K.K.",
"(.T.T.J...1 ~ [.XX{..X.X.X.X{.D.h 8.!.U.L.^.{.].).8.h S.T.s.V.V.7.a.s.7./ 1 ..w.a.Z.F.T.~.T.4.p S.T.T.F.K.Q.T.T.J.' u S.(.(.(.(.",
"n.7.6.,.~ * A S.F.Z.8.Z.T.D.C.' t >.1.<.M.B.H.J.7._ a Z.<.` :.1.<.>.1.:.T 3 ..:.V.m.7.s.a.1.~ t | w.A.7.m.8.7.,.:.N u V.C.C.M.7.",
"<.*.:.*.A 2 A ,.4.4.4.6.o.,.` g - D <.<.;.6.>.6.<.j 8 3.<.*.<.n.b.1.1.<.d 4 ` :.V.A.N.m.*.W N q ,.a.V.7.n.n.m.6. .g 7 4.:.>.:.<.",
"<.*.<. .~ 4 ~ 8.a.6.6.6.2.' W b # D W <.6.<.=.2.>.a 4 o.,.:.<.b.7.1.1.<.d 3 T W o.6.m.7.:. .M 4 ..o.>.*.&.P &.&.) a u <.:.*.:.b.",
"=.) ' ' A 4 ` 7.2.>.>.2.' m b z 9 / / 6.;.=.' ' ' p e G  .' <.<.6.1.2.) s 6 N V v G >... .` n > Q  .W W P P E W ' p u >.:.' *.=.",
"h h h g t 4 d ~ ~ ^ ~ R n l k : - n  .=.' A j j d y 0 z B h d s h s a p q 7 q w r s d h h n y 9 b s s T h h g h h 4 6 M N h h T ",
"1 o + * 1 4 4 < * * 4 s z l r > - 4 d N d a t e 9 s m m b h N s w 9 q 6 6 7 7 6 1 3 4 4 9 4 9 q q 7 1 7 7 7 4 7 1 1 1 6 7 1 1 1 ",
"< < h ^ ' 3.3.5.5.%.3.$.x c H +.e.f.h.G.G.G.k.A / d.d.F.G.U.z.p.J 0 w B / ~ R R d b d t 4 9 z B D N h h h h i f ^ _ ( ~ h p t 7 ",
"I T `.`.].'.].].[.`.T.i.z F c.W.W.E.R.E.[.'.Q.A 8.T.T.S.a.a.u.w.} w G l.z.Q.~.T.T.z.k...y n x.E.W.^.!.!.!.s.a ' K.U.K.U.L.Q.Q.K.",
"a ^ F.S.C.S.S.H.H.S.s.[ r F j.d.s.4.{ B 7.4.@.7 ..X.1.7.<.,.,.} m , V } o.u.V.C.a.,.o./ y D E.T.T.T.H.Z.Z.6.p >.8.<.8.6.M.M.H.S.",
"a / 6.` >.,.4.7.7.>.` S 9 B a.4.,...X.$.../ / e [ [ o.1. . ./ C z : m G X.V.A.A.7.<. .~ e ( F.a.H.A.A.s.7.>.p ' <.4.s.C.C.m.7.7.",
"7 N ,.` >.6.n.7.7.>.T A 7 N u.1.o.X.{ o.../ / d .. .' :.` W / D l ; m C X.7.V.n.1.<...~ 4 / 7.7.A.A.a.1.>./ 8 ( ,.a.H.H.S.S.B.M.",
"4 z ..' ' >.2.2.2.' ( ~ 7 h ,...[ G G / ' ' ^ h `  .' ( ' ` ( S k ; z } ..<.>.6.6.' ' A 7 ` <.<.7.m.7.<. .` 8 I >.4.5.8.s.8.3.@.",
"9 9 N A h A A N N A ~ h 7 a A A Z A A A h j h 8 s h h j h h j d 9 - q B / _ _ I ~ h h p 4 h ~ ~ T / / ^ / h 8 p T ~ ( A Z c m c ",
"# 3 7 1 * = = - 3 4 7 7 2 7 7 e e p a h h h h p 8 2 2 = = 4 t t t a f h d a p 4 4 2 2 = 4 8 t u t q 7 8 8 7 1 * + 4 - - & & & & ",
"0.e.d.8.O.e $ ( f.f.3.3.$.$.$.O.p a g.G.Q.Q.Q.L.K.8.t 8 8.K.!.!.Q.Q.L.Q.J.^ 8 a h N j d ^ _ I t i ( ' ..2.' ^ N f t 3 0 H H K K ",
"Y.U.G.F.S.M 4 Q.U.F.G.G.T.U.z.F./ ' ].T.T.).(.G.f.h.j j '.!.'.'.`.K.J.K.D.~ j D.W.^.^.}.|.|.!.( I Q.W.Q.].]. X`.!.i.7 D Y.x.x.c.",
"d.a.a.s.2.s 3 4.R W ) ) ) ' X.o.N / F.6.V.A.7.7.o.{ a S F.F.T.F.s.7.7.M.2.a a S.C.J.I.I.F.F.s.h T Z.a.Z.Z.M.6.6.6...4 D d.u.4.d.",
" . . .....t * ..R R ` ) *.` X...j O.a.,.7.A.S.S.4.[ t A D.s.s.4.6.M.M.C.2.p a 7.m.V.A.A.V.a.<.s N u.,.C.C.m.*.*.>./ q N X.G B / ",
"X. .` W ' t * W [ / ` ` *.:...' j ' 7.>.,.a.a.4.4.~ t A 4.,.>.,.6.n.m.7.' 8 h 7.1.1.6.1.1.,.>.a ~ 4. .,.6.-.*.) ` ~ 9 N X.G G } ",
"[ (  .D ( q o b  .B z M *.*.../ h ~ <. .' ` ' ' ` ~ p A ,.o.' ) <.=.>.=.^ 7 h 4.1.1.1.1.<.<.=.a h ,.' :.-.*.*.~ ~ ~ 4 M o.| J G ",
"d A Z v c 3 o > 0 n s M N ~ ~ ~ y a R N M d d s d p t d A N h T I ~ ~ h p 7 s ' ` ' <.=.' ) ~ p p ` ` ` ~ ~ ) I ~ h 1 4 N N d n ",
"o o $ & % o o X   @ = - 4 8 4 1 7 p 4 7 4 2 = 2 2 4 8 8 t t 7 4 9 d h A A A ^ ' N 7 7 t p s s p 7 p p p u t p 7 7 1 3 4 i q 3 @ ",
"o 4 h A A S ( A x w 3 q ` 2.2.2.7.8.2._ 4 4 A 8.h.h.k.D.D.D.{ y y i.Q.W.R.U.Q.G.K.N 7 8.i.s.w.p.S.g.D.C.f i M.D.h.F.G.G.U.G.j.8.",
"+ 3.[.'.!.E.~.!.R.p.s q R.^.[.{.].{.XXQ.j d Q.`.J.S.2.>.2.2.[ y t s.i.,./ ` ,...` i g T.K.J.Z.J.J.S.s.6.i a G.s.C.C.H.A.a.a.d.4.",
"1 $.U.S.4.4.8.8.8.' q t F.F.s.C.S.H.H.8.j h K.s.4.' ` ) ) ~ / y y s.6.>.W / <. .` 7 a H.J./.A.V.V.4. .W 7 a Z.:.<.=.6.n.7.1.>. .",
"4 ..d./ T ~ ' *.=.T 3 s F.s.>.:.=.<.1.>.h a 4./ / ` ' W _ ` ~ y d s.1. ./  .<. .` 8 t a.m.V.7.<.1.:.W W 7 h C.:.*.-.<.b.<.<. .` ",
"7 ..8.' / ` <.1.1.>.- i J.s.' *.*.=.<.>.d 4 ( T R /  .) ` / ` t s ,.o.` W  .:.*.` 4 4 ..W *.*.=.*.) E ) q T 7.W E &.*.*.) W W ` ",
"7 R  .` ~ ` o.4.6.>.q q 7.<.` ' *.*.<...d = N / ` ^ ` ' / ~ A 7 4 ` ` T T ` ' ' ' 8 < N M T T ) *.) L T u g :.W T E &.) ~ ` ` ~ ",
"7 g g p p e y s s t 4 5 T T R ~ ~ ^ ~ ^ p O 4 t t p e 4 4 2 * $ 1 4 4 4 2 3 q q t 1 X o * 6 7 q 7 7 4 i 7 i g i 7 7 t 7 7 7 7 q ",
"T h p 7 1 1 2 4 1 1 < < 2 7 8 p p 4 8 4 2 + + + * + o o + + 1 6 q p i 4 1 O $ = 9 d p p y p t 7 5 < 6 9 6 9 4 1 1 1 4 1 1 7 t I ",
"`.Q.L.L.D.5.8 7 ^ O.@.#.3.g.D.G.6.4 4 ' #.f.f.f.h.%.j o 2 3.h.G.U.Q.U.U.j.4.* p G.Q.W.v.v.v.R.S.g / p.p.u.i.u.i.i.D.S.f L D.!.).",
"S.S.g.S.h.3.8 8 S.G.G.D.M.8.4.4.4.p ~ ].Q.F.h.L.!.T.4.* h T.F.F.S.F.J.F.S.7.1 s J.T.G.,.` 8.a.C.M ..p.p.p.d.d.Z.S.F.S.g =.).5.5.",
"=.' _ &.I I t 8 7.7.4.-.=.) ~ T ^ t ( Q.4./ ( 6.7.@.~ * n F.a.8.,.1.a.s.4./ * s Z.S.a./ ` a.a.4.s / w.w.1.y.,. .7.1.' p @.5.) ) ",
"@.=.-._ L T p p 2.7.7.;.-.) T T ~ 8 ' S.4.2.>.2.' W ~ - n u.o.1.6.7.7.,.<.~ * p >. ./ / `  .../ 0 B o.y.X.,.o.<.7.6./ t ' >.' >.",
"@.2.' _ ~ _ a p ' ) =.&.) I P L ~ 8 ' 8.>.2.2.>.' D m , r [ [ 1.A.A.m.7.7./ = t / W ` ,.,.:.X.D > z C V R [ ` :.' W h e _ ' ` ' ",
"=._ ' ' ' ' t 8 ~ T ) U U ) ~ ~ ~ 8 ~ ,.>.=.=.=.{ / Z , , m C o.4.V.m.7.4.~ = i  ./ ,.7.4.4.| D 0 w m m C Q / R R T d 7 h ` _ ' ",
"p a a t t 8 4 8 a a a f I L I I j 2 t N j j I h n x l : ; , e y s s N h t 4 * - q p p d M N Z y # $ : : 0 q q y 7 4 7 4 i a p p ",
"7 8 2 1 2 2 4 7 7 2 4 4 8 4 8 4 4 1 1 1 2 + * 4 4 > r k l r y t t 1 O o . + * * 1 O O o @ $ $ # $ o @ @ 3 < < $ O O 1 6 7 4 7 7 ",
"f 8 8 ' 5.5.f.f.g.h.h.g.3.a 7 _ 5.i.h.f.f.f.f.3.y h l.l.x.v.E.!.!.>.1 O ] k.k.k.h.f.f.@.A 3 $ b C m b M R W M q O i h ` ' ~ I L ",
"P.' I ).`.Q.Q.Q.Q.L.L.D.8.j 8 D.Q.`.`.T.S.s.8.4.M ' !.G.U.J.J.S.S.7.7 u ).G.U.Q.R.G.k.k.s.M 9 j.c.U.U.Y.Q.T.T.N i J.T.T.T.Q.k.Q.",
"=.I I ).K.2.2.=.=._ ' ^ _ a t D.F.F.F.Z.8.` R / d ( S.7.6.2.m.C.A.5.p a s.' >.>.<.' ) R R e q J.Z.Z.a.7.1.1.1.p s a.,.V.Z.C.4.,.",
"~ j h K.S.2.6.8.6.) R / _ a t h.{ w.u.u.o. .` ` a j >.W / >.M./.J.8.e a ,.T ` 6.n.=.=.` ~ 2 q d.a.V.m.6.' <.,.a q >.,.1.4...` / ",
"^ j h K.S.7.7.6.-.` _ ( ' a y u.G G } [ [  .` ' t p  .W >.7.H.J.A.<.q p ) R ) <.1.*.` E N * q o. .m.M.n.W ` ` p 6 [ ` / / C B R ",
"' h p s.5.' =.) ) _ ' ' ( a e H F V F D ~ / / A t p ' ` / ` >.,.' / t 7 T M T T ' <.) ` h % 9 [ W 1.n.6.` E ` a i W W / D F F D ",
"h a 7 d s y p d d s d d a 7 y c z z z z y y q 4 = 4 p p p 7 8 8 7 4 1 * 3 4 9 q t y t t - o & s g / ` ) T T A p i g d x x n x y ",
"h d h h y p 7 4 4 7 t 7 7 q y e r 0 > 0 0 y s p 7 7 7 1 O o 1 4 4 4 8 4 t 1 * $ - : O X . . . o o O O * 1 4 6 1 5 $ $ & > 9 9 s ",
"x.R.Q.Q.Q.J.~ < g 2.4.5.5.8.d.r.0.J y 0.r.j.R.Q.T.K.S.g < ' f.G.R.Q.R.G.G.F.A O d 4.@.@.O.( | S 4 o ~ ..' o.3.4.4.` n 9 9 0.f.k.",
"G.U.K.C.S.C.~ 1 5.].'.[.[.|.W.c.l.+.d p.p.I.T.T.G.4.>.a + g.h.d.8.i.s.s.8.4.N O 4.F.Z.F.T.).T.Q./ 4 K.T.K.Q.U.Q.R.T.z.G k U.U.T.",
"u.s.7.<.>.<.~ 1 8.K.F.s.8.Z.d.u.w./ y d.u.d.C.m.<.) ) a + >.` ` ` ..6.7.:.' s O 4.a.1.a.V.C.6...h 7 8.<.1.*.W *.4.a.,.n b F.a.u.",
"1.1.>.*.*. .~ 4 8.Z.4. . .,.1.>.>.T p a.,.,.<.-.*.E ) p * / R ` 2.7.6.4. .[ p + 2.7.,.7.V.M.1.` d 4 ..*.=.*.-.<.6.7.,.s M F.,.X.",
":.*.:.*.*.' ~ 4 ..4. ...,.4.<. .' h 7 4. . .*.=.*.) _ p 1 / R ,.7.7.4.6.o./ a * $. .' <.7.m.1./ s 3  .' -.=.-.-.' G / p h S.1.,.",
":.' ` ' ' ' j 7 h ../ 2.2.2...' ' A 7  .>. .*.=.=._ _ p 1 ~ ~ >.2.2.' 2.@.' t = ..` W [ 6.7. ./ d 3 / W ) ;.;.-.[ F D t i 2.:.:.",
"a s g h h j p 4 p M n ~ j j A ~ ~ a p ` ` R g f t t 8 2 * q d h h h h d a t 4 1 M / R / / ~ ~ N t 3 M g h ~ ~ ~ m c h 7 6 g s a "
};
