/* XPM */
static char *_dd8001f2c0d41dbdc20f062e3a86229ofL46ZTzVczvRhYS[] = {
/* columns rows colors chars-per-pixel */
"64 32 254 2 ",
"   c #050604",
".  c #061205",
"X  c #031817",
"o  c #171308",
"O  c #271206",
"+  c #142619",
"@  c #39351B",
"#  c #322713",
"$  c #192B21",
"%  c #3B3C25",
"&  c #303127",
"*  c #001D21",
"=  c #4A351A",
"-  c #472E10",
";  c #463A25",
":  c #523D2A",
">  c #531B00",
",  c #384122",
"<  c #594229",
"1  c #4C5439",
"2  c #58573C",
"3  c #4D4930",
"4  c #67563B",
"5  c #7C5B36",
"6  c #684929",
"7  c #78603C",
"8  c #51603F",
"9  c #37504F",
"0  c #2B667A",
"q  c #395D6D",
"w  c #595848",
"e  c #695D48",
"r  c #6C5754",
"t  c #546A54",
"y  c #6B6549",
"u  c #786548",
"i  c #6D6653",
"p  c #756A55",
"a  c #7A735D",
"s  c #6D7653",
"d  c #576F6B",
"f  c #7A7D77",
"g  c #71736A",
"h  c #405E69",
"j  c #961514",
"k  c #920D09",
"l  c #AB080A",
"z  c #B30808",
"x  c #A61509",
"c  c #B80815",
"v  c #A61A17",
"b  c #B91717",
"n  c #B2130D",
"m  c #A8251A",
"M  c #B82415",
"N  c #BB1E27",
"B  c #AE292B",
"V  c #972B22",
"C  c #C8090A",
"Z  c #C60817",
"A  c #D80718",
"S  c #C8161C",
"D  c #D41A18",
"F  c #CF0C09",
"G  c #E3061C",
"H  c #C42517",
"J  c #C91423",
"K  c #D41A25",
"L  c #E91324",
"P  c #D93535",
"I  c #C82A2F",
"U  c #E4262F",
"Y  c #975638",
"T  c #8F633D",
"R  c #A3633D",
"E  c #AF583A",
"W  c #885D4F",
"Q  c #BC4844",
"!  c #BC5547",
"~  c #996945",
"^  c #897659",
"/  c #947A58",
"(  c #876C4F",
")  c #AB6844",
"_  c #B9744C",
"`  c #AA795A",
"'  c #B87C58",
"]  c #AA724A",
"[  c #887965",
"{  c #967C62",
"}  c #AE7D6A",
"|  c #CC454A",
" . c #C77C57",
".. c #D16B4E",
"X. c #CD7666",
"o. c #F66D6D",
"O. c #E27558",
"+. c #7A836A",
"@. c #7A845F",
"#. c #9B8359",
"$. c #BC825D",
"%. c #B6865A",
"&. c #A98A5B",
"*. c #89836A",
"=. c #97866A",
"-. c #898676",
";. c #988B76",
":. c #8B967A",
">. c #9C9479",
",. c #97926A",
"<. c #A68966",
"1. c #BA8863",
"2. c #A9926B",
"3. c #B9966B",
"4. c #A78E77",
"5. c #BB8B75",
"6. c #A89878",
"7. c #B99A76",
"8. c #AEA27B",
"9. c #97A37F",
"0. c #C8845C",
"q. c #D4855C",
"w. c #D6915A",
"e. c #C28463",
"r. c #C48B65",
"t. c #CB8B66",
"y. c #C48A69",
"u. c #CC8D6A",
"i. c #CC8562",
"p. c #D48A64",
"a. c #D38D6A",
"s. c #DA8D6B",
"d. c #D78865",
"f. c #C4936A",
"g. c #CB936C",
"h. c #C79467",
"j. c #D4926E",
"k. c #DB926E",
"l. c #D99C6F",
"z. c #DB8C75",
"x. c #CD9472",
"c. c #CB9C74",
"v. c #C69A75",
"b. c #D49473",
"n. c #DA9272",
"m. c #D59B76",
"M. c #C48B79",
"N. c #E59372",
"B. c #D3A969",
"V. c #C8A47A",
"C. c #D8A379",
"Z. c #CDAD71",
"A. c #E6A37A",
"S. c #E0895E",
"D. c #346884",
"F. c #36779A",
"G. c #327295",
"H. c #2C7BA6",
"J. c #397DA6",
"K. c #497997",
"L. c #52788B",
"P. c #427EA6",
"I. c #2B81AB",
"U. c #3783A9",
"Y. c #3185B5",
"T. c #3A819F",
"R. c #778C8F",
"E. c #4B87AE",
"W. c #6898B4",
"Q. c #6D96AA",
"!. c #77A3B0",
"~. c #5D8295",
"^. c #989785",
"/. c #8D948C",
"(. c #A79A85",
"). c #B89687",
"_. c #B19E93",
"`. c #98A897",
"'. c #AAA687",
"]. c #B7A68A",
"[. c #B8AA96",
"{. c #B8B698",
"}. c #AAAE95",
"|. c #97AEAE",
" X c #A6AEA7",
".X c #ADB6A7",
"XX c #B4BBA5",
"oX c #B5BBAB",
"OX c #BBB9A8",
"+X c #B6BDB3",
"@X c #B7BFB9",
"#X c #A7B7B6",
"$X c #899EA3",
"%X c #D09982",
"&X c #F3968C",
"*X c #C8A986",
"=X c #D8A985",
"-X c #C7B18A",
";X c #C7B89A",
":X c #D8B99A",
">X c #CCAC95",
",X c #EAAB89",
"<X c #C6BBA5",
"1X c #D0B9A8",
"2X c #F9B4AD",
"3X c #BAC2AC",
"4X c #B1C2AF",
"5X c #BBC5B5",
"6X c #ACC1BB",
"7X c #C6C59D",
"8X c #D9C89A",
"9X c #CAC5A9",
"0X c #D6C8A6",
"qX c #C2C4B5",
"wX c #C4CBBB",
"eX c #CACDBC",
"rX c #C7C7B5",
"tX c #D4CBB3",
"yX c #D6CDB8",
"uX c #D9D3BA",
"iX c #DBD4AD",
"pX c #E7C3A6",
"aX c #FDC3AB",
"sX c #E5D8B6",
"dX c #E5CCB3",
"fX c #EDE1BC",
"gX c #91B5CB",
"hX c #9CC4D6",
"jX c #A6C3CA",
"kX c #BCCCC3",
"lX c #ADCBD5",
"zX c #C5CDC2",
"xX c #C9D4C6",
"cX c #D4DCCC",
"vX c #D8D8C6",
"bX c #DBDDD0",
"nX c #CFDCD2",
"mX c #E5DEC1",
"MX c #FDD8D0",
"NX c #DBE3CE",
"BX c #D6E3CF",
"VX c #D8E4D3",
"CX c #EAE4C8",
"ZX c #F7E9C8",
"AX c #ECEDDC",
"SX c #E4E8D4",
"DX c #EBF2DD",
"FX c #FAF5DA",
"GX c #FAE8DB",
"HX c #F5F7E7",
"JX c #ECFFFF",
"KX c #E8F9F7",
"LX c #EAF3EB",
"PX c #DCF6FF",
/* pixels */
"R ) ) _ _  . ...q.0.p.i.u.j.1.5.vXyXrXOX<XyX{ g p  XOX/.`./././.f /.PXPXgXD.G.G.G.H.J.G.G.W.gXgXgX@XzX@XeX5X4XNXNX{.3X3X.X XR.g ",
"R ) _  . . . . .q.q.d.i.u.b.1.M.9X-.g 2 e e p /.: # r r f /.L.[ L./.KXKX$XD.P.H.H.F.J.G.D.W.hXgXgX@XzXzXeX5X4XNXBXXX3X5X.X`.R.d ",
") ] _ '  .0.q.q.q.p.a.t.b.m.e.v.yX_.AXvXvX(.(.[.p : /.[ /.g R.-.{ -.LXKX!.0 F.F.H.H.I.G.G.W.gXgX#X@XnXkXxX5X4XSXSXXX4X5X.X X/./.",
"] _ _  . .q.q.q.q.w.k.a.b.m.1.%XuX.XAX_.-.a [ [ [ a f _.[.^.}.^.^.^.LXKX!.0 J.H.I.H.I.H.D.W.hXgX#XlXnXzXeXqX3XVXSXXX3XwX+X#X X X",
"_ _ ' 0.0.q.q.p.p.p.n.a.b.b.y.%XtXoXSX;.i a i 6 ^._.[ _.<XOXOX[.}.{.DXJX$X0 U.I.I.I.I.G.G.W.jXgX#XkXnXnXxXwX3XSXSXXX+XqX+X@X@X@X",
"] ' 0.e.0.q.p.d.d.p.k.a.b.g.y.*XCXqXAX^.-._.[ y r [ [ ;.(.[.[ (.'.rXDXJXQ.D.U.H.I.I.I.H.G.!.hXgXjXkXnXnXxXwX3XAXNXOXqXqXoXoX@XzX",
"_ ' 0.i.0.p.p.d.k.p.n.b.b.x.1.>XtX XHX^.OX<X^ < = : 5 6.>X0X6.(.,.sXDXKX!.0 T.I.Y.I.I.G.G.!.hXjX#XzXVXnXnXwX5XAXbXoXqXzX+X.X@XzX",
"' ' 0.i.p.p.p.p.k.p.z.n.b.x.y.=XyXqXHX*.9XtX;.= = W { :X=.; 4 = ^ mXFXLX!.0 U.U.Y.I.I.F.T.!.lXjX@XzXVXnXcXwXqXDXvXOXeXxX+X+X+XzX",
"'  .i.t.a.p.d.d.s.k.b.a.m.=X' :XyX5XAX*.1 ;.].].^ u / #.4 ^ ;.4 ^ uXHXJXQ.q E.I.Y.Y.J.J.G.gXhXlXkXnXcXnXcXqXwXAXbXOXqXzXwX+XwX5X",
"$.1.u.t.p.a.a.s.k.k.z.j.b.%X' :X<XxXDX*.p e ].^ < - - ( :XiX:X-X^ uXHXKXQ.K.E.E.E.Y.Y.P.F.gXjXjXkXBXVXcXcXwXeXAXSX3XqXqXqX.XzXqX",
"' e.t.t.a.a.s.s.s.k.b.b.b.%X' :XuXcXHX:.i ;.: O <.].:X].=.#.4.=.=.yXHXKXR.L.K.E.P.P.P.P.~.hXlXlXkXVXVXBXcXwXwXAXbX<XzXrXqXoXzXqX",
"1.e.t.u.u.a.a.a.k.k.a.b.b.%X` 2X{.rXAX^.p 0X;.sX0X4.=.).;X0X7X].*.^.HXKX$XL.Q.W.W.Q.E.L.~.hXlX6XkXVXVXNXbXzXeXLXvX3XzXeXrXoXwX5X",
"1.1.u.u.u.a.a.d.b.z.z.b.m.%X` :X9XNXNX-.[ y ( =.^ =.( [ [.4.p ,.i w 5XJXd 9 q q L.L.L.L.L.nXlXkX5XVXSXBXvXzXvXGXbXqXzXrX5XXXeXqX",
" .y.u.a.j.a.a.s.n.j.j.b.b.c.` 2XtXNXSX'.'.*.4 : ^ ].;X6.6.[ 2 3 y 1 ^.HX$ . X X   X X * 9 |.|.|.6XVXSXBXbXzXvXAXbXqXeXqXqXqXSXAX",
"' y.u.u.u.a.a.d.k.a.b.b.%Xc.` pX[.eXSX^.i >.*.(.[ [ 6.'.y @ ; 3 8 8 @.DX& + $ + X $ * * 9 |.`.`.4XBXSXBXvXzXvXLXmX<XeXqXrXwXDXDX",
"y.y.u.u.a.a.a.a.n.n.z.b.b.c.` pX;XFXvXp a s dX).[ { u ; @ @ % 1 1 8 @.XX1 . % o $ & $ $ t +X X X3XNXDXBXvXtXzXAXnX<XyXrXqXOXvXrX",
"X.1.y.y.u.z.z.a.k.z.N.a.u.1.1.0X:XMX1X^.g -.).W W ; & ; & # 3 % t t +.^.; O o o O   . . r OX[.[.9XFXAXCXSXuXyXHXmXyXtXyXrX<X_.a ",
"u.g.x.x.u.b.b.n.z.z.N.z.b.y.%.:X1XMX%X[ ^.:.} %X2X: o # & O @ 1 3 w s e O O # % r # . + g _.{ ;.'.;X<X{.{.].].<X(.(.(.>.;.=.a y ",
"' '  .' ' ' e. . .X.X.' ' ` ` V.{ 4.{ 4 % % 5.GXMXM.{ -.=.4.].>X:X5.} M.M.%X).*._.g d d g [ [ 4.*.-.=.-.*.*.=.,.=.;.;.>.(.>.(.'.",
"Y ~ ~ Y ~ ) ~ Y R ) ) Y ~ ~ T #./ =.5.].>.r W | X.%X&X&X%X&X2X&X&XN.&XN.X.X.u - ;.& * t  X<X_.[.tXZXZXmXCXsXCXFXmXmXuXmXCXiXuXFX",
"' r.y.r.X.f.u.e.m.n.m.g.h.Z.3.8XiXfX;X-XsX5.k b l l c J Z Z Z C z z b m m k > o W     t }.(.^.>X;XCXsX8XuX0X7XfXiX8X;XiXsX7X7XZX",
"$.u.g.y.3.x.c.y.m.m.m.g.Z.3.3.8X{.iXiX:X0X} k J U A A G G G A G L D F z H M Y 5 ).2 1 /.1XdX1X1XsXFXCXsXZXfX0XsXsXiX0XiXsX0X0XfX",
"$.u.c.1.3.c.c.3.m.x.f.f.7.&.#.8X7X7X0X8X;X1.v c S K K J J K K K C F U D D M  .aX:X;X9XrX8.6.{.-X&.2.7.3.<.&.2.#.8.7.2.#.( / / 5 ",
"' y.3.1.1.v.7.%.V.3.c.V.V.#.#.7X7XmX0X>XsX7.k N N N x j m m j v S F D C D z E j.r.6 6 2.#.6 T 2.5 5 &.<.5 ( 3./ #.V.7.~ 5 &.2.T ",
"` %X1.v.7.Z.Z.Z.*X=X-XV.Z./ #.].7XiX7X-X9X:XV v m j X.2XdXMX2XX.B x K S C n ..s.,Xn.c.V.h.h.Z.Z.&.v.=X3.1.7.=Xf.1.v.=XV.v.V.1.1.",
"~ *XV.-X-X-X{.8X-X7.V.-X:X7.2.7XXX7X;X;X0X:XV j j O.MX2X&X&X2XHX2XQ k J K b O.N.A.k.m.,Xa.w.B.Z.h.m.C.t.f.g.C.h.r.r.x.f.g.C.g.1.",
"` V.7.2.8.,.,.8.8.<.2.-X].2.6.;X{.OX<X>XtXpXB l I 2Xo.B v B j | MX2Xv J D x ..S.N.w.l.A.k.w.B.B.C.l.=Xg.j.g.C.t.g.h.j.r.t.C.g.$.",
"( <.( ( 8.8.8.,.8.=.7.:X#.7 #.;X4XoX<XOXuXdXQ z c 2XJ c Z N J N Q MX| c D C ..A.s.q.k.A.S.w.B.B.C.g.A.g.j.t.m.g.$.g.A.t.0.r.0.%.",
"<.4.u 7 {.{.}.8.8.6.;X:Xu < { <X3X3X9X{.0XpXQ n l &XS Z K c K c v 2XI z D H q.w.C.w.j.A.q.q.l.Z.h.h.A.g.h.r.C.l.$.h.C.0.' h.0.%.",
"<.5.4 ; @.,.,.9.{.8.:X].( < =.;X3X3X;X{.7XpX! x c U P z K Z K b | o.b D F M w.h.h.%.c.A.S.q.h.B.%.h.C.h.h.r.C.j.C.C.l.%.' g.0.%.",
"< ( ; @ s @.@.'.}.6.7X4./ 6 (.;X{.XX7X{.{.8XE x x b P n l Z C J P b F D F M l.A.3.&.y.=Xz.d.m.V.%.h.C.h.h.h.C.%.C.C.C.%.%.c.%.] ",
"# ( e a 9.9.@.@.'.>.9X=.{ < 4.[.{.{.;X{.{.8X! x x M k S b o.U K b c D F F H _ 3.Z.2.v.m.z.X.c.V.1.f.C.r.1.f.C.%.%.h.C.1.%.f.%.] "
};
