/* XPM */
static char *d3cfd74a0bfa4701eaa0b147ee6e4d13apkmuJbFhIXD4fj3[] = {
/* columns rows colors chars-per-pixel */
"64 65 170 2 ",
"   c #573B26",
".  c #593C27",
"X  c #5A3D29",
"o  c #5C412B",
"O  c #5C4B2C",
"+  c #5D522E",
"@  c #5C4532",
"#  c #5F4A3A",
"$  c #62452E",
"%  c #654730",
"&  c #664931",
"*  c #6C4C33",
"=  c #654D3B",
"-  c #684E3A",
";  c #615330",
":  c #655C35",
">  c #67563A",
",  c #6B513E",
"<  c #725137",
"1  c #765439",
"2  c #79573B",
"3  c #7B593C",
"4  c #5E7C39",
"5  c #676237",
"6  c #617939",
"7  c #6C5340",
"8  c #675F41",
"9  c #725743",
"0  c #765A45",
"q  c #7A5B41",
"w  c #755E4C",
"e  c #655B52",
"r  c #6B5D51",
"t  c #76604D",
"y  c #7D6149",
"u  c #68615C",
"i  c #796554",
"p  c #72665D",
"a  c #6D6966",
"s  c #6C6C6C",
"d  c #736C67",
"f  c #726D69",
"g  c #805C3F",
"h  c #825E40",
"j  c #866142",
"k  c #8A6444",
"l  c #8F6847",
"z  c #83644B",
"x  c #8B6649",
"c  c #86684F",
"v  c #8B694C",
"b  c #906747",
"n  c #906847",
"m  c #916748",
"M  c #966C4A",
"N  c #996E4C",
"B  c #9C714E",
"V  c #866A52",
"C  c #8A6A50",
"Z  c #806B5A",
"A  c #916E52",
"S  c #8E725B",
"D  c #947256",
"F  c #9F7351",
"G  c #91745D",
"H  c #9E7A5C",
"J  c #A0734F",
"K  c #A37652",
"L  c #A67854",
"P  c #AB7B56",
"I  c #A17B5D",
"U  c #AE7E59",
"Y  c #B07F59",
"T  c #837161",
"R  c #837569",
"E  c #8F7C6D",
"W  c #9D7C62",
"Q  c #987E69",
"!  c #A07F64",
"~  c #5E833B",
"^  c #5F953F",
"/  c #63843C",
"(  c #6B823D",
")  c #628C3D",
"_  c #698A3E",
"`  c #63913E",
"'  c #68913E",
"]  c #5F9740",
"[  c #5F9840",
"{  c #698D41",
"}  c #7A8B4D",
"|  c #639740",
" . c #6B9441",
".. c #619D41",
"X. c #6C9C43",
"o. c #6C9F4F",
"O. c #7D914D",
"+. c #769948",
"@. c #7B9B4D",
"#. c #64A443",
"$. c #6AA544",
"%. c #6BAA45",
"&. c #6EAC49",
"*. c #70A246",
"=. c #70AA47",
"-. c #72AF4A",
";. c #7BAC4D",
":. c #74B34B",
">. c #7DB24F",
",. c #6EA952",
"<. c #73AE53",
"1. c #76B053",
"2. c #7BB452",
"3. c #7DB952",
"4. c #7BB458",
"5. c #7FB959",
"6. c #829E52",
"7. c #B5825B",
"8. c #BB875F",
"9. c #BC885F",
"0. c #83A354",
"q. c #81B452",
"w. c #81BB55",
"e. c #89B059",
"r. c #84BB5A",
"t. c #89BE5C",
"y. c #86807B",
"u. c #A58367",
"i. c #A98161",
"p. c #A78468",
"a. c #A88569",
"s. c #B58966",
"d. c #BC8861",
"f. c #B58E6F",
"g. c #BD8E6A",
"h. c #93AC6C",
"j. c #85B965",
"k. c #89BE62",
"l. c #C0916C",
"z. c #C29470",
"x. c #C39877",
"c. c #C59A79",
"v. c #8CC15E",
"b. c #8EC260",
"n. c #8DC16A",
"m. c #91C462",
"M. c #92C863",
"N. c #99C777",
"B. c #9DCA77",
"V. c #878785",
"C. c #8A8885",
"Z. c #898A8B",
"A. c #D1CBC7",
"S. c #D2CDC9",
"D. c #D6D0CB",
"F. c #DAD3CE",
"G. c #D2DECC",
"H. c #DCD7D2",
"J. c #DFD8D3",
"K. c #E3DBD4",
"L. c #E8DFD7",
"P. c #E5DED8",
"I. c #D5E1CD",
"U. c #DAE5D2",
"Y. c #DDE9D5",
"T. c #EDE3DB",
"R. c #E1EDD9",
"E. c #F0E6DE",
"W. c #E4F0DC",
"Q. c #E8F2E1",
/* pixels */
"Q.U.I.R.R.U.R.R.I.R.Y.I.Y.Y.I.Y.Y.I.U.Y.I.Y.R.I.U.Y.G.U.Y.I.Y.R.U.U.Q.U.U.W.U.U.R.I.I.R.U.I.R.U.I.Y.Y.I.Y.Y.I.Y.U.G.U.Y.I.Y.Y.U.",
"N.5.5.r.w.w.w.w.5.5.5.3.1.<.<.<.<.-.<.<.4.4.2.3.,.,.,.,.1.:.1.4.r.b.b.b.5.5.5.5.4.:.4.<.<.<.<.:.<.2.<.<.&.&.,.,.o.o.o.,.<.4.4.j.",
"k.:.:.:.:.:.3.:.:.:.:.&.%.#.#.#.#.%.#.$.%.-.-.%.#.#.#.#.%.%.%.-.3.3.3.3.:.:.:.:.%.$.%.$.%.%.%.$.%.%.%.%.#...#.#.[ ] ] [ %.%.%.4.",
"n.:.:.:.:.3.:.:.:.:.:.:.%.#.%.#.%.#.%.$.&.-.%.-.#...#...%.%.%.%.3.3.3.3.:.:.:.3.%.%.%.%.$.#.#.%.#.%.%.$.#.#.#.#.[ ] ] [ %.%.%.4.",
"n.:.:.3.:.:.:.:.:.>.:.>.:.%.%.%.%.%.%.%.X.X.X.' ..#.#.#.%.%.%.-.:.1.2.2.w.:.3.:.-.-.-.-.%.%.%.%.%.%.%.%.#.#.%.#...^ #.` %.%.%.5.",
"n.:.:.:.-.%.%.%.w.w.t.w.3.>.;.2.q.q.q.;.: o o + [ #.%.#.#.#.#.#.#.#.#.#.b.M.M.M.b.b.m.t.:.:.-.-.#.#.#.#.%.%.%.%.%.%.#.$.%.%.%.2.",
"n.:.:.:.%.%.%.%.w.t.r.e.q.q.2.q.q.q.q.;.+ . X o ..%.%.%.#.#.#.#.#.#.#.#.k.b.b.M.m.m.M.v.:.:.:.-.#.#.#.#.%.%.%.%.#.%.#.%.%.%.%.4.",
"n.:.:.:.-.%.%.:.w.w.r.r.q.q.;.q.q.w.q.0.+ . . O | %.%.#.#.#.#.#.#...#.$.k.M.M.b.m.m.m.v.:.:.:.:.#.#.#.#.%.%.%.&.%.#.%.%.%.%.%.4.",
"n.:.>.2.X.` _ | q.t.t.t.q.;.;.;.>.>.>.;.+ . X o | %.%.$.^ ^ ~ { #.#.#.&.v.v.v.v.v.b.M.v.q.>.3.:.) ^ ~ ^ #.#.#.#.%.#.#.#.` ' ' @.",
"B.v.v.t.5 o o O 0.m.m.b.=.#.#.#.$.%.%.$.+ . X O X.:.-.=.O o o + $.:.-.1.3.w.w.v.v.M.M.b.m.b.v.e.O o o + [ #.#...#.#.#.^ o o o > ",
"B.v.v.t.: . X o 0.M.M.b.-.#.#.#.%.%.$.$.+ . . o X.:.&.$.O . X o $.:.:.:.3.w.3.3.b.m.b.M.b.m.m.e.O . X O [ #...#.#.#.#.~ o X X , ",
"B.v.v.t.: . X o 0.M.M.m.-.#.#.%.%.%.%.$.O . X O X.:.:.=.; . X O *.:.:.:.3.3.v.v.b.m.m.M.M.M.M.e.% .   + [ ......#.#.#.^ o X   7 ",
"h.@.@.@.8 # # = } 0.0.@.' ~ ) ) $.%.%.$.; X X o ( ' ' _ O . X O X.-.&.&.o.+.+.+.r.r.v.q.0.6.6.O.; % $ & 4 ~ ~ ~ ~ ~ ~ 6 O $ $ 9 ",
"t o o o u s s s # o o o o o . O X.&.:.$.; X X o o o o . o X X O ] #...] O o o + $.=.-.$.+ o o o 1 3 2 < o X o o o o o $ 2 2 2 c ",
"w X . o u s s a #     . o   . o X.:.&.=.+ X X X o X X o o X . O ] ..#.[ O X . O X.%.-.' O . . $ 1 3 3 1 o X X o o o . o 2 3 2 c ",
"w   X X u s s a #   o       o o X.:.:.&.+   . . X o . . . X o o ] ..#.[ O   . O X.%.%.$.O   . o 1 3 3 < o X     o   o o 1 3 2 c ",
"V & * * i d p p 7 * * * 3 3 1 3 6  .{ ( 1 * * * & & % % % % & % 4 ~ { 4 O . . o 6 { _ / # # 7 = 2 3 3 1 * * * * o . X % 1 3 3 c ",
"u.M M M q 3 2 2 m M M N U 8.8.7.< X X o k N M M 3 3 3 3 3 1 3 3 o X   X X o X X o . . @ a s s a 0 3 3 3 M M N k o . . $ 1 q 2 V ",
"p.M M M g 2 3 3 m N M N Y 8.8.7.* X X o k M N M 3 3 3 3 3 < 3 < X X X X X X X X . o X @ s s s a q 2 3 3 M M B k $ . . o 2 2 2 c ",
"p.M M M g 3 3 3 m N M N 7.d.9.7.* X X o k N M M h 3 3 3 3 3 3 2 @ X X X X X X X . .   @ s s s a q 2 2 h M M M k o . . % < 2 2 c ",
"W k k k 2 * < < m N M M L U U P < $ & & k N N M < * < * * < * * X X X o % % % & & & & & e e e r 2 3 2 q k l k j * $ $ < m m m H ",
"G 3 3 2 $ . . X h N N N M M M M h 2 3 3 n N M n $ X X X X X X X X X . $ 1 3 1 q 3 3 3 1 $ X X o 2 3 3 2 3 3 3 2 2 3 2 j 8.8.8.l.",
"G 2 3 2 $ . X o k N M N N M M M h 2 2 3 v M M M % X X X X X X X o X X $ 1 3 3 3 3 3 3 < o . . $ 1 3 3 3 3 2 3 3 3 3 2 j 7.d.8.l.",
"C 2 2 2 $ . X o h N N M M N M M 3 2 2 2 M M M M % X X X X X X   X X X X 1 3 3 3 1 3 3 1 X X . X 1 2 2 3 2 2 2 3 3 3 3 j 7.8.8.z.",
"p.M M l * X X X h l k k k k k x V Z Z Z l k k k * & & * 3 g g g h h h h 3 3 3 3 k M M v g g g 3 3 2 2 3 j j h h 3 3 3 j P P P s.",
"c.d.d.7.< . X . < 3 3 3 3 3 3 q y.Z.Z.C.w 2 3 3 3 3 3 q Y 9.8.9.d.d.d.7.h 2 2 h 7.8.8.d.9.9.9.7.h 3 3 h M M N M 3 3 2 g M M M H ",
"x.8.8.7.< X X X < 3 3 3 3 3 3 q y.Z.Z.V.y 3 3 3 3 3 3 h Y 8.8.8.d.8.8.Y h 1 2 h 7.8.9.9.8.8.8.Y 3 3 3 3 M M N l 3 3 2 h M N M I ",
"x.8.8.8.< X X X * 3 2 3 1 3 3 q y.Z.Z.V.y 2 2 3 3 3 3 3 Y d.9.9.8.8.8.Y h 3 3 h 7.8.9.9.8.9.9.Y h 2 2 3 M M N M 3 3 2 3 M N M I ",
"c.8.8.7.3 & & * k N M M M M m M E E E E x h h h 3 2 2 3 N J J K P P P K < * * < J P P P P P P J 3 3 3 3 k k k k j j j k M M M I ",
"x.8.d.8.k 3 3 3 P d.8.8.9.d.8.8.B M M M N N M M g 2 2 3 2 2 3 3 m N N m % X X $ l M M M M M N l 3 3 3 3 2 3 2 3 M N M M M M M I ",
"x.8.8.7.k 3 3 3 P d.d.9.8.8.8.8.B M M N M M N M 3 2 2 2 3 3 3 3 M M M m % X X $ l M N M N M N M 3 3 3 3 2 3 2 h M M M M M N M I ",
"c.8.8.8.k 3 3 3 P d.9.9.8.d.8.8.J N N M M M N M g 2 2 2 3 3 3 3 M M M m o X X X l N M N M N N M 3 3 2 3 3 3 2 3 M N B M N M M I ",
"f.L P P j 1 3 3 M B N B K P P L m h k h M M M M g 2 2 2 * * & * h j k j 2 < 2 2 M M M M k j j j 3 3 3 3 3 3 3 3 1 1 3 3 h h h D ",
"p.M M M h 3 3 1 1 2 2 3 n M M M h 3 3 3 m M M M 3 2 2 2 $ . . $ < 3 3 g M N N M M M N M 3 2 2 2 3 3 3 3 3 3 2 < X X   $ 3 3 3 C ",
"p.M M M h 3 3 3 3 3 2 3 n M M M 3 3 3 3 M M N M h 2 3 1 X X X o 1 3 2 3 M M M M M N M M 3 3 3 3 3 3 2 3 3 3 3 < $ X X $ 1 3 3 c ",
"u.M M M h 1 1 3 3 3 2 3 n N N M g 3 3 3 M M M M g 3 3 1 $ . . o 1 3 2 3 M N M N M M M M q 3 2 3 2 2 2 2 3 3 3 < X X X % 2 3 3 c ",
"p.M M M l k k j * * & * h j k j 3 3 3 1 3 1 1 < * * * & & * * * 2 3 3 3 h j k j j k j j 3 3 3 h N B N B N F N M * * * < h k k D ",
"a.M N N M N M M & . . . < 2 2 2 3 3 3 1 o X X X . . . o 1 3 3 2 3 2 3 3 2 2 2 2 3 1 2 3 3 3 2 h 7.9.9.9.9.d.d.Y h 3 3 g M N M I ",
"u.M M M N M M M * . X o < 3 2 2 3 2 3 1 X X X o X X . o 1 2 3 3 3 3 3 2 3 3 3 2 3 3 3 2 3 3 2 h 7.8.9.8.9.8.8.Y 3 3 2 g M M M I ",
"p.M M N M M M M & X X X < 2 2 1 1 3 3 1 % X X X X . X X 1 3 3 3 2 3 3 3 2 2 3 3 2 2 2 3 3 3 2 h 7.9.8.8.9.9.8.Y 3 3 2 g M M M I ",
"p.N N M N M M M 1 * * < M K F K F F F N < & * < j M k m k k j j * & & * M J J J J J J N 3 2 2 g K L L L K L K L R R R T k h j A ",
"i.M M N M N M M g 3 3 3 P d.9.9.9.9.8.8.k 3 3 h 7.9.d.8.B N N n $ . X $ P l.8.8.8.8.l.Y h 2 2 g M M M M M M M D C.Z.Z.y.q 3 2 V ",
"p.M M M M M B M g 2 3 3 P 9.8.8.8.8.8.7.h 2 2 3 U 8.9.7.B M M n $ . X $ P 8.9.9.8.8.8.Y h 2 1 g M M M M M M M D C.Z.Z.y.q 2 2 c ",
"a.M N M N M M M g 2 3 3 U 9.8.8.8.d.8.7.j 2 2 h 7.9.9.7.B M N n $ X X $ Y d.8.9.8.8.8.Y h 2 2 g M M N M N M M D C.Z.Z.y.q 3 2 c ",
"u.M M M k h j j 3 3 3 3 N K K L K K K K K K K F M M M M M N N v r r e r F L L K K K J J g 2 3 2 < < * 1 M M M M Z i V i & & % 0 ",
"p.M N M h 2 2 2 1 3 2 3 M M M M N M N N 7.d.d.7.j 2 1 2 n M M M f s s f C M M M M N M M g 2 2 1 . X   & M M M n 3 2 3 1 o X . , ",
"p.M N M h 2 2 2 1 3 2 2 k N M N N M M N 7.8.9.7.j 2 3 3 n N N M f s s f A M M M M N M M g 2 3 1 o . . & n M M m g 3 2 < X X . , ",
"u.M M M h 2 2 2 3 3 2 2 M N M N M N M N 7.9.9.7.j 3 3 3 n N N N d s s f A M M M N M N m 2 2 3 1 X . X % M M N M 3 3 2 1 $ X X 7 ",
"G h j h * $ $ $ g m k k j g j j N M M N K K L K L J L J k g j g w w w w h g h h h h h h q 3 2 2 < < * < h h h k K L K K N N N ! ",
"G 2 2 2 $ . o o j N M M g 2 3 3 m M M M m N M N Y l.l.Y g 2 3 2 g 2 3 2 3 2 g 2 3 2 2 3 2 2 3 3 q 3 3 3 2 2 2 h 7.d.8.8.d.9.9.l.",
"S 2 2 2 $ . . o j N N M g 2 2 3 m M N N M N M N Y 9.8.Y g g 2 g 2 2 2 3 3 2 2 2 3 3 3 3 2 3 2 3 3 3 3 3 3 3 3 j 8.8.8.8.9.9.9.l.",
"S 2 2 2 $ o X o k N M M g 2 3 3 m m N N M M M N Y 8.9.Y g 2 2 2 3 2 3 3 3 2 2 2 2 3 3 3 3 2 2 2 3 3 3 3 3 3 3 h 7.8.8.8.8.9.9.l.",
"S 2 2 3 h j j h g j g h 3 3 3 2 * * * * h h h h J K J J m b b k g 2 2 1 % $ $ * F L L F % % % * < 3 3 h K L L L K J J K K J J ! ",
"S 2 2 3 l N N M g 2 2 2 2 3 2 2 $ X . X < 2 2 2 M N M M N M M M g 1 3 1 $ X . % Y d.d.Y %     X 1 3 3 h 7.d.d.7.N M M M m M M P ",
"S 2 2 3 n N M M g 3 3 3 3 3 3 2 $ . X o < 2 2 h m N M N M M N m g 3 3 1 o . . % U 8.8.U % X X % 1 3 3 h 7.8.8.7.N M M M N M M I ",
"S 2 2 3 l M M M g 2 2 2 3 3 3 2 $ X X o 1 2 2 2 m M M M M M M m 3 3 3 1 $ X . % U 8.8.P % X X X 3 3 1 h 7.d.8.Y N M N M N N M I ",
"! k m m h h h h * $ $ & N L L L h < < * * o % % 2 h h h * * * * 3 3 3 2 < < < < h b k h 2 < < < 3 3 3 q k k k k M N N M N N M I ",
"a.M M M h 1 3 1 $ . . o K l.8.8.h 3 3 2 o X X o 1 2 2 1 o . . o < 3 3 3 3 3 3 3 2 2 2 3 3 3 3 3 3 3 3 3 2 3 3 g M M M M N M M I ",
"a.M M M h 3 3 2 $ . . $ J 8.8.8.k 3 2 2 o X X o 1 2 2 1 $ . X o 1 3 3 3 3 3 3 3 3 3 3 3 3 2 3 3 3 2 3 3 3 1 3 g M M M M M M M I ",
"u.M M M q 2 3 2 $ o o $ L 8.8.8.h 2 3 2 % X X o 1 h q h o . X o 1 3 3 3 g q 3 3 2 3 3 3 2 2 2 1 3 3 3 3 3 3 3 h M M M M M M m I ",
"G g g g & $ $ $ M L L L 8.8.8.8.h q 3 2 < < < 1 K Y Y L $ . X o < 3 1 g K P P L h 1 3 1 & X $ % < 3 3 h L P Y K h g h 3 % % % q ",
"G 2 2 2 $ . X X L 8.8.8.8.8.8.7.h 2 3 3 2 q 2 h Y Y l.Y * . X X 1 3 3 h Y l.9.Y h 2 3 1 X X X $ 2 3 3 h 7.d.d.Y 3 2 3 < X X . , ",
"S 2 2 1 $ . X o J 8.7.8.7.8.8.7.h q 2 q 2 2 2 h Y 8.Y Y * . X X < 3 3 g Y 9.8.Y h 2 3 < o X X X 1 2 1 h 7.9.9.U g 3 3 < . X . , ",
"Q z j z , - * - Y l.l.l.l.l.l.g.A c h V h x x h d.l.l.l.0 = = 7 h z z C d.l.l.d.C z z z - - - 7 h z c C d.l.l.s.c z z z - - - w ",
"T.H.D.K.F.A.H.F.H.T.T.K.T.T.K.T.K.S.K.K.S.K.K.D.L.E.K.L.K.A.S.K.D.F.P.F.K.E.L.K.P.F.D.P.D.S.J.F.D.K.J.D.T.T.K.T.K.S.K.K.A.F.H.D."
};
