/* XPM */
static char *c94da21c22e74e1b9fe21500c9dacd08RACslgtG0TnJivak[] = {
/* columns rows colors chars-per-pixel */
"64 36 195 2 ",
"   c #010202",
".  c #0A0103",
"X  c #040B02",
"o  c #020409",
"O  c #0B060A",
"+  c #060A09",
"@  c #080B08",
"#  c #100A0E",
"$  c #051008",
"%  c #0B0F10",
"&  c #120B12",
"*  c #1C151A",
"=  c #171918",
"-  c #1B1D1D",
";  c #24191D",
":  c #1E231E",
">  c #222419",
",  c #1A1E22",
"<  c #1E2322",
"1  c #272727",
"2  c #262927",
"3  c #2A2B2B",
"4  c #282328",
"5  c #31272F",
"6  c #29322F",
"7  c #2E2D33",
"8  c #322F38",
"9  c #2C3232",
"0  c #373536",
"q  c #7C797E",
"w  c #76787B",
"e  c #981614",
"r  c #BE040B",
"t  c #AC0C16",
"y  c #B00817",
"u  c #BC0B15",
"i  c #B6091A",
"p  c #B90919",
"a  c #AC191E",
"s  c #AC161F",
"d  c #B4121E",
"f  c #B71319",
"g  c #AA1423",
"h  c #AA1E2B",
"j  c #B41423",
"k  c #BC1B25",
"l  c #B41529",
"z  c #BE1A2B",
"x  c #B61A22",
"c  c #CC0104",
"v  c #C3050D",
"b  c #CE040D",
"n  c #C4090D",
"m  c #D50004",
"M  c #DB0106",
"N  c #D5010C",
"B  c #DE000F",
"V  c #D9090C",
"C  c #C50514",
"Z  c #CE0313",
"A  c #CA0914",
"S  c #C40318",
"D  c #C70B1C",
"F  c #CC0B1C",
"G  c #C30B17",
"H  c #D50512",
"J  c #DD0211",
"K  c #D50A14",
"L  c #D90A17",
"P  c #D3041A",
"I  c #DC041A",
"U  c #DB0C1B",
"Y  c #D70D19",
"T  c #C4111D",
"R  c #E80006",
"E  c #E1000E",
"W  c #E9000B",
"Q  c #E00005",
"!  c #E30212",
"~  c #EA0112",
"^  c #E50A17",
"/  c #E3041A",
"(  c #E7081B",
")  c #F6091B",
"_  c #CB0B20",
"`  c #D10B22",
"'  c #C51222",
"]  c #CF1020",
"[  c #CC393E",
"{  c #CE343E",
"}  c #CE3544",
"|  c #D43A44",
" . c #826C78",
".. c #85717C",
"X. c #D74B58",
"o. c #DB4C50",
"O. c #C75456",
"+. c #CE5051",
"@. c #C65559",
"#. c #D75054",
"$. c #D5555D",
"%. c #DC525C",
"&. c #D4595C",
"*. c #DC5859",
"=. c #D85054",
"-. c #E74D58",
";. c #E0535A",
":. c #CD5C60",
">. c #E45E6B",
",. c #E85B6C",
"<. c #F75D67",
"1. c #F65C68",
"2. c #E66362",
"3. c #E86769",
"4. c #7B887C",
"5. c #7C7F85",
"6. c #807C83",
"7. c #8B7E85",
"8. c #7D8387",
"9. c #7F8A84",
"0. c #848485",
"q. c #84868B",
"w. c #8A848D",
"e. c gray55",
"r. c #96878E",
"t. c #909388",
"y. c #878C91",
"u. c #928D95",
"i. c #8A9090",
"p. c #969B96",
"a. c #A39C9B",
"s. c #9AA29C",
"d. c #95A291",
"f. c #9E9FA1",
"g. c #A5A1A0",
"h. c #FF9399",
"j. c #FC9D9E",
"k. c #F69599",
"l. c #F68C96",
"z. c #F5A399",
"x. c #FEA6AA",
"c. c #FCACA9",
"v. c #FAABA7",
"b. c #FFAFBB",
"n. c #FFB7B6",
"m. c #FFB4BD",
"M. c #FFBFBD",
"N. c #FFC1B7",
"B. c #FFC3BE",
"V. c #FFB7C1",
"C. c #FFBCC2",
"Z. c #C7CFC4",
"A. c #C7C6CB",
"S. c #D1D3D6",
"D. c #FFC5C6",
"F. c #FFD6CB",
"G. c #FFDCD4",
"H. c #FFDBDA",
"J. c #FFD6DB",
"K. c #FFDBE1",
"L. c #EBEBEA",
"P. c #EAE9E6",
"I. c #FFE5E3",
"U. c #FFECE3",
"Y. c #FFE7EB",
"T. c #FFEDEC",
"R. c #F5ECEF",
"E. c #ECF4EB",
"W. c #FFF3E4",
"Q. c #FFF4E5",
"!. c #F2F0EB",
"~. c #FFF3EC",
"^. c #FFFBED",
"/. c #EBEDF1",
"(. c #FFEBF4",
"). c #F3EEFA",
"_. c #FFEFFA",
"`. c #F1ECF3",
"'. c #EBF5F2",
"]. c #F4F2F5",
"[. c #FFF0F3",
"{. c #FFF4F3",
"}. c #F5FDF4",
"|. c #FEFEF5",
" X c #FCFCF4",
".X c #F6F6FE",
"XX c #FEF5FB",
"oX c #F5FCFC",
"OX c #FBFFFA",
"+X c #FFFDFA",
"@X c #FBFFFF",
"#X c #F9FDFD",
"$X c #FFFDFF",
"%X c #FEFEFE",
"&X c #FDFDFD",
/* pixels */
"B B B J B B J B B B B B B B B B m V J B / ! ! J B M W R V c B M Q V c V E ~ E ! B B E ~ B B L N B B B B B B B B B E B B B B E J ",
"B B B B B B E B J B B E J B B B V B B J J ! J ! B E R E c Y b K V m K c ~ ~ ! J ( M M ~ B ! B J B B B B J E B B B J B B B B B B ",
"B B B E E B B B E B B B B B B B J ~ M ~ ! N N N ~ M E / P D _ S u D Z P / J B ~ N V J M Q M ( J B J B B B B J B B B B J B B B B ",
"B J B B J B B B B B B J B B B B M M ) W m B H L J Z F p z } ,.>.3.>.} z i _ Z H ! N J m ~ ~ M ~ E B B B B B B B B B B E B E J B ",
"B B B B B B E J J B B B B B B E E ~ N M W E N K D j @.c.J.(.T.(.(.T.T.G.c.O.d G H J B ~ M ! ~ E E J B B B B B E B B B B B E B B ",
"J E B J B B B B E B B B B B J E ! ~ M B m ^ n f %.D.U. X|.{.+X+X+X%X{.|.{.U.D.=.f C I M ! M ! ~ E B B B B B B J E B J B B J B B ",
"B B B E B B B B B B B B B J E B J N J B ^ A e z.W.^.~.+X X$X$Xq 5.$X%X|. X^.^.W.z.e ] / ! ! N M J B B B B B B B B B B B B B B J ",
"B B B B E J B B B B B B B B B B J H B L n x B.Q.^.}.#X#X%X%X0.o o w.%X%X|.}.^.^.~.M.g S / ! V N B B B B B B B B B J E J B B B E ",
"B B B J B B B B B J B J B B B B H J ! P s n.U.~.+X#X#X#X#X0.      o S.#X#X#X#X XT.(.m.g P / B N B B B B B J B B B B J B B B B B ",
"B E B B B B B B B E B B E B B J V N I p l.U.T.+X%X%X.XoXi.  X     p.%XXXoXoX%X%X$X{.T.l.' P N B B B B B B E B B B B E B B B J E ",
"J B B B B B B B B B J B B B B B H H S ;.U. X+X$X%X.X#X8.o       s.OX+X%X.XoX%X.X$X$X~.T.X.D U m B B E J B B B B E B B B B B B B ",
"B B B B E J B B B B E B B B B B B A j C. X}.%X%X$X%X5.o O   @ t.}. X+XP.< 0..X%X#X%X%X{.C.t K ! B B B B B B B J J B B B E B B B ",
"B J B B B B ! B E B B B B J B B ! C &.U.{.%XXX$X%X8.    .   g.+X+X+XE.:     u.$X$XXX%X{.I.&.r / J B B B B B B E B B B E J B B B ",
"B E B B B B B B J B B B B B E J ^ T c.Q.%X%X$X$X).=   X   : ].$XXXP.2   +   . w.$X%X%X^.~.j.' J J E B B J B B B J B B J B B J B ",
"B B B B B B B B B B B B B B B J N f G.^.OXoX#X%X%X!.>   $   4 ).`.- X     X .   r.oXOX}.^.F.k I J E B B E B J B B E B B J B E B ",
"B J E B B J E B B B B J B B B B H [ W.}.oXoXS.%X{.+X!.:   o o 8 7 o     <     O   q.#XoX}.W.| N J B B B B B B B B B B B E B B B ",
"B B J B B B B J B J B B B B ! J b ;.~.OX$Xw.o s.%XXX$XL.1 o o     +   3 .Xp.    .   w..X%X~.o.b J B B B B B B E B B B B B J E B ",
"B B E B B B B E E J E B B J ! H n 2.~.%X7.o X   p.XX$X$XP.3         0 ].#X#Xe.    X o w.oX~.3.n H B B B B B B J B B E J B B B B ",
"E B B B B E B B E B B B B B J V n 3.~.].w o   X . a.%XoXoX9     X   9 /.oX%X%Xt.    o q %X~.2.n N B B B E J B B B B B B B E B B ",
"J B B B B J B B B B J B B E ! H n *.~.+X%Xw X   . . f..X-   +     o o 6 /.#X+X}.t.  5.$X%XU.*.n H B B B B B B B J E B B B B B J ",
"B B B B B J E B B B B B B B J J Y [ ~. XoX#X4.  X   O = # .   6 1   %   5 XXOX}.}.Z.%X%X{.~.} Z H E B B B B B B B J B B J B B B ",
"B B J E B B B B B B ! B B B E J J x H.|.+X+XOX4.    . . . . 3 L.L.4   . . 4 P.oXE.OX%X X XH.k H J ! B B B B B B B E B B B B J E ",
"B E B B B B B B B B J ! B J B B J ' c.[.[.+X}.OX9.  o & . * P.%X+XP.* . O o 6 '.OX}.{.$X[.j.T J B B B B B B B B B B B B B B B B ",
"B J J B B B E J B B B E B B B E ~ v :.T.{.%XoX#X%X0.o o 5 R. X}.|.a.  o o o 0.%XoX%X%X[.T.$.G ! J B B B B B B B B B B J E B B B ",
"B B B B B B J B E J B B B B B B ~ H g C.{.#XoX%XXXXX5., L.%X}.OXp.      o y.$XXX%X.XOX[.V.j H E B J B B B B E J B B B B J B B B ",
"B B J E B B B B B B B B B B B B M J T $.T.{.%X%XXX$X.XoX#XoX}.d.      + 9.oX$XXX%X%X XU.%.D I E E B B B B B B B J E B B E B J B ",
"B B B B E B B B B B B E B B B B M ! Z t j.[.XX#X%X].#XoX.X#Xp.  X     8.oX#X].%X%X[.[.k.p Z ! M B B J E J E B B B B B B J B E B ",
"B B B B J B B B B B B J B B B B B N / C h m.[.XX+X%XoXoX%XA.    .   8.oX.X%XOX+X$X(.b.g F ~ B M M B B B B B B B B B J E E B B B ",
"E J B B J E J E B B B B B B B B N V M N ` l V.T.^.^.|.+X%X%X7.. . r.#X.X+X^. X^.Y.b.l ` B N J N J B J E B B B B B B B B B B B J ",
"B B B B B B B B J E B J B B B B J V Q E ! ` l h.U.Q.{. X$X%XXX.. .$X#X%X|. XQ.W.h.l ` J E m B J J E B B B B E J E B B B B B B B ",
"B B B B B J E B B B B E E B B ! B J E E E I ` y #.B.I.~.$X.X#X$X$X).#X$X{.U.B.+.i P I V W ! ! N J B B B B B B B J B E J B B B E ",
"B B E J B B B B B B B B J B B J J B M Q E M J U G t &.x.J.XX_.(.(._.(.H.x.O.a u U ~ E Q Q M ! ! J E J B J E B B B B B B B J B B ",
"B B B B B J B B B B E J B B B B B B E E E E J J H A C f k } -.1.1.-.[ k f G A K J J E E E B ! J B B B B E J B B B B B B B B J E ",
"E B B B B E B B B B B B B B B E M B E E ! E B J N B B H H H H H N N H H J J B M ! E B E E E E E B B B B B B B B E B J E B B B B ",
"J B E J B B J B J B B B B B B B E B B M B B E E ! J B N H H H H K H N N K J ! J E B B E ! E B J B B E B B B J E J B B B B B B B ",
"B B B B B B B B E B B B E J B B B B B B E E E E N V N B H H H H H H N N B B M N B ! E E B B B B B B J B B B B B B B B B B B E J "
};
