/* XPM */
static char *_d28435eb4694b66e63d3f000c29e78aClw3S6AfRs7VokTD[] = {
/* columns rows colors chars-per-pixel */
"64 64 126 2 ",
"   c #4C391D",
".  c #4A3C2B",
"X  c #483F30",
"o  c #5D451F",
"O  c #71531F",
"+  c #554023",
"@  c #5E4722",
"#  c #52422D",
"$  c #524433",
"%  c #644C25",
"&  c #654E2B",
"*  c #694E29",
"=  c #6F5021",
"-  c #66532E",
";  c #6C542D",
":  c #6E592E",
">  c #725424",
",  c #755826",
"<  c #73552D",
"1  c #78572C",
"2  c #745B2C",
"3  c #795C2D",
"4  c #654D31",
"5  c #665532",
"6  c #6C5632",
"7  c #675831",
"8  c #6D5A33",
"9  c #63513B",
"0  c #6B563B",
"q  c #6D5B3A",
"w  c #715632",
"e  c #745C34",
"r  c #7A5E34",
"t  c #705738",
"y  c #745E3A",
"u  c #7B5E3B",
"i  c #75602E",
"p  c #7D612E",
"a  c #6E6033",
"s  c #6F6039",
"d  c #766136",
"f  c #7C6235",
"g  c #7F6834",
"h  c #75613B",
"j  c #7B623A",
"k  c #6C5C41",
"l  c #705F41",
"z  c #746242",
"x  c #7D6342",
"c  c #81632E",
"v  c #826334",
"b  c #856936",
"n  c #82643B",
"m  c #846939",
"M  c #8A6B3C",
"N  c #90713B",
"B  c #826542",
"V  c #856941",
"C  c #967B46",
"Z  c #9C7F43",
"A  c #967D4C",
"S  c #9C7E4B",
"D  c #967D54",
"F  c #9C7E53",
"G  c #A17F40",
"H  c #A17F4F",
"J  c #9E8646",
"K  c #9C8847",
"L  c #97804C",
"P  c #9D844D",
"I  c #9E894B",
"U  c #9D8452",
"Y  c #9E8953",
"T  c #9E865A",
"R  c #9E8859",
"E  c #A28546",
"W  c #A3854C",
"Q  c #A9864B",
"!  c #A5894C",
"~  c #A98A4D",
"^  c #A38552",
"/  c #AA8753",
"(  c #A48952",
")  c #AA8B53",
"_  c #A28758",
"`  c #AA8659",
"'  c #A48A5A",
"]  c #AC8C5A",
"[  c #B38E54",
"{  c #B28E5C",
"}  c #BA8F5E",
"|  c #A69056",
" . c #AF9055",
".. c #A7905E",
"X. c #AE925B",
"o. c #B49256",
"O. c #B99256",
"+. c #B4945C",
"@. c #BA955C",
"#. c #B69A5E",
"$. c #BC9A5E",
"%. c #A78F61",
"&. c #AE8F63",
"*. c #B38F62",
"=. c #AE9263",
"-. c #AE926A",
";. c #B49463",
":. c #BA9563",
">. c #B59963",
",. c #BC9B63",
"<. c #B69669",
"1. c #B9976A",
"2. c #B5996A",
"3. c #BC9C6A",
"4. c #BD9C71",
"5. c #BEA165",
"6. c #BEA16A",
"7. c #C19B5E",
"8. c #C29D64",
"9. c #C19D6A",
"0. c #C39E71",
"q. c #C1A065",
"w. c #C1A16A",
"e. c #C8A36E",
"r. c #C3A371",
"t. c #CAA572",
/* pixels */
"#.5.5.X.~ ! I ! W ( ! W W W W / W ^ W / ,.6.,.3.,.>.,.>.@.#.} +.^ W W ) #.3.9.8.8.8.8.9.8.8.0.8.7.8.8.7.7.$.7.7.7.5.q.>./ Y R U ",
"5.5.5.#.) W W ! ! ( W H W H S W H W W _ ,.6.,.6.3.,.,.,.;.;.+.{ W S W ! #.,.9.8.,.8.8.8.8.8.8.8.8.7.8.7.$.$.7.$.7.$.,.#.) Y _ U ",
",.5.5.X.) W P W ! W H ^ / ` ` ) P W W ! >.6.,.9.w.3.3.,.,.:.@.@.W J P | #.5.w.5.q.q.7.5.8.8.8.8.8.8.8.8.8.8.7.7.7.$.5.>._ I ( I ",
",.5.,.#.) / ^ / ` ^ ` _ U F H U ! ( (  .,.,.>.,.,.$.,.:.+.} [ O.I I ! ! #.#.#.#.#.#.$.$.8.8.8.8.8.:.*.7.8.7.8.8.q.$.q.$./ I ^ Y ",
",.q.w.8.,.:.,.1.<.] <.' M f m v  .X. . .,.#.+.#.~ ~ ~ ~ Q ~ Q Q ! K K K I | ! ! ! ! ~  .o.o.#.+.H / / [ [ @.@.O.7.7.7.#.~ W ! I ",
"8.,.8.8.8.8.3.9.<.<.1.] f < r 3 #.$.#. .#.O. .+.H G E E Q H Q Q K K K K K K J J E E E !  .o.o.+.H H H ` { } O.O.7.$.$.$.~ W W W ",
"7.7.7.7.,.,.,.,.#.{ 3...b 3 M f #.#.o.o.$.O. .o.Q Q Q Q Q Q Q Q ! ! ! K E ! E E E E E ~  .#.O.+.` H H ` } @.:.@.q.$.q.$.Q E ! W ",
"7.q.7.7.7.$.$.,.,.) >.| g i b 3  .#.X.o.#.#.o.O.Q Q Q Q Q Q G Q E K J E ! ! ! E ! E E ~ o.o.+.+.^ H ` ` { :.@.+.8.$.,.$.! E ! W ",
"7.7.7.$.$.5.$.>.W I ! I U L U I I W ! W ! W W Q +.+.+.o.+.+.+.[ 5.$.#.#.,.,.,.$.,.:.,.@.$.O.} } 1 < < = 0.3.9.,.$.$.,.@.) W W ( ",
"7.7.7.$.5.$.5.>.! ( ( Y Y I Y Y ^ ( ( ( ( ! ^ ! +.+.;.+.+.@.;.+.q.q.w.q.9.9.,.9.8.8.8.,.:.*.} +.1 w < < 4.3.r.3.9.8.,.#.) ! W ( ",
"5.5.5.5.5.$.5.5.I I I I I I I U U I P P P P P P =.>.;.+.;.;.;.;.9.9.9.9.9.3.9.9.0.9.3.9.1.:.*.;.< * * < <.4.r.1.3.6.3.;.) W U Y ",
"#.#.=.#.>.#.>.>.U U L U U Y Y U U Y U Y U _ _ _ =.=.;.=.&.;.;.;.1.1.1.1.1.1.1.1.<.1.1.*.<.;.*.*.u t u l -.2.1.<.<.1.<.<.' _ _ _ ",
"2 2 2 : 2 2 2 : : : , 2 a d i i d d d d e d f d f f j f f f u f j n n j n v n j w w r < e < < w 4 & 5 % y e r 3 f j n f r e r d ",
"; 5 7 ; 7 ; ; ; : : : e d d f d d h d d d h r y d d h r y r r u e u y y r e y y ; ; - : 6 : 6 7 t q q 6 ; & ; ; r r r f u r h h ",
"0 0 0 0 6 0 0 0 7 7 - 6 h j d d a d s d e e r e y y y r r y u y y y y h y y y h 6 - 7 7 6 7 8 6 5 5 5 5 - ; < : e e r y r y u h ",
"t t t t 0 e w 6 e : : e d j j h j h f h j j j j f f u j j j r f h h h j h h h h 8 8 8 8 8 7 6 7 8 8 e y : e r 1 r v r u r r u r ",
";.,.,.+.( P P ( ^ C ^ S ^ W ` S W U I U <.3.<.,.,.<.3.<.^ S U F ;.,.3.+._ S W _ ' _ _ D n t l u =.{ +.*.+.+.{ { +.@.;.:.:.,.,.:.",
"7.7.7.@.~ W E W W J ! W Q W [ Q ! ( ! / >.w.3.8.,.$.8.,.^ J ! W ,.q.6.,.~ W W ! S S _ A v w n n +.+.[ +.[ o.} +.[ +.o.O.@.,.8.8.",
"8.5.,.#.) I P ! / I ) P ) H / W W W W Q $.8.,.q.q.7.5.$.~ E ! ! ,.5.8.@.) E E ! W ^ ] H n w v n <.#.:.#.;.#.;.#.:.#.;.,.,.q.9.9.",
">.,.,.X.) W I P I A I C ] ` ` ! W ! W ~ @.,.$.7.q.7.5.5./ W ! ! >.,.,.@.) Q ! ! E H ^ S n r r f +.X.+.+.;.o.+.+.+.X.{ +.>.>.,.>.",
"` ) / _ ( Y U I b p g b *.*.*.*.o.O.[ [ $.7.O.7.7.5.7.$.~ E ! I @.@.,.#.+.o.o.+.#.;.;.,.+.=.<.=.^ ^ ^ ( ^ ( ^ ( ^ ^ ^ ^ ) / / Y ",
"^ W W P Y Y Y U i 2 2 i -.*.0.0.@.@.O.O.@.@.O.O.7.5.5.#.! K ! I +.+.+.+.+.#.#.#.o.) X.+.X.;.;.X.W I W P W P P W W I W P I ^ W L ",
"^ W W ^ ^ ( Y U f c 1 c *.1.0.H +.@.O.[ O.} [ O.7.7.5.#.! K I I o.o.[ +.O.+.+.+.,.+.#.,.+.>.#.X.^ ^ ^ ^ ! ! ( ^ ( ! ! ^ ! ( ( W ",
"[ / ! ! ( ^ ^ I 3 v c v *.1.H 9.@.@.O.O.8.7.O.7.7.7.5.5.! K I I ,.>.:.;.#.>.+.+.X.) o.#.X.+.#.+.! ~ ~ ~ ^ ~ ! ~ ! ! W W ~ / ! ! ",
"8.8.8.:.,.,.,.,.,.,.>.<.8.H 0.8.,.8.:.7.8.8.8.:.8.w.w.#.| K K I Y ^ W ^ / ! ^ ! p c c c $.5.>.,.$.7.$.$.$.$.$.$.:.$.$.$.$.$.$.$.",
"8.8.8.8.9.,.8.3.3.,.,.,.8.0.} } 8.,.8.,.:.9.:.8.:.,.5.>.| Y Y Y ^ _ _ _ ^ _ ^ ^ v c 3 c ,.q.,.,.8.8.q.8.q.8.q.8.8.8.8.8.8.8.q.7.",
"8.8.8.8.,.8.,.,.9.,.9.:.8.H 7.*.4.3.3.3.3.9.3.3.2.6.3.>.| Y L U L U U Y T F F U 1 , , 3 >.6.6.3.q.q.8.q.8.q.q.q.8.,.8.8.8.,.8.8.",
"8.:.:.:.1.,.<.,.1.1.<.:.9.*.*.*.<.2.<.<.<.<.1.:.2.2.2.=.R R R Y U Y T R T T T T j r j n =.<.2.2.;.,.;.,.:.,.;.>.,.:.,.>.:.,.>.,.",
"v v v v v f g f 3 e e 3 r r c 1 e e e e w e w r e e r e e r d d a i d d y d y u 6 * * % r 1 r 3 3 3 3 2 3 3 3 3 f f v f f f v f ",
"1 v r r y r d d ; ; ; : ; < w w - ; ; ; * < < ; * - ; w e y h h d s d d h y y y t 0 u 6 t * ; ; ; ; ; : : ; - : d h r h d d r f ",
"u t u r y h q h - 5 7 5 6 t 6 t 6 7 6 7 6 6 w w w w ; t e h y e a a d h y y l y 0 4 0 6 0 & t - 6 7 7 5 6 5 7 7 y h h s s h q h ",
"u u r u j j h h e e e e t e t e : : 8 2 w w w t e t w w h j j j g d f j h j h z r 6 r < e < r : t 8 e 8 8 e t q h h j z h z h z ",
"1.1.1.<.<.,.>.#.:.1.1.1.1.1.>.,.2.>.<.2.r r f e D F F ^ :.1.@.8.,.#.$.@.+.:.} +.{ ] } ;.{ { @.{ <.<.<.<.<.<.=.<.<.2.<.=.' U U T ",
"8.8.8.8.9.8.8.5.8.,.$.8.8.,.,.5.,.$.5.,.c 3 f r F ^ H ` :.8.8.7.7.$.7.@.O.O.@.[ 8.@.@.:.@.@.,.{ :.8.3.,.,.,.3.6.3.3.3.<.' ^ F ^ ",
",.$.,.$.,.$.7.5.8.5.w.q.8.,.5.q.5.$.,.>.c , 2 , F ` / ` 8.9.7.q.8.5.$.,.,.#.:.#.o.) ] +.} ;.,.+.,.8.8.w.8.3.8.0.3.6.3.;.] ^ ^ ^ ",
"5.5.5.5.5.,.5.5.>.$.#.#.#.,.#.$.#.O.#.o.N b M M H %./ / :.8.7.$.$.>.>.#.+.;.+.;.<.+.;.>.] ;.;.] ,.,.8.,.:.@.@.:.>.,.,.;./ W ^ ^ ",
"E K E E E E E K ~ ! ~ ! ~ ! ~ ~ ~ E ~  .X.] ;.;.&.{ ] [ $.@.o.O.) ( ) ( ( _ ( ( Y U _ L b i g c ,.,.7.$.[ ~ [ / ) / [ / / W ^ ! ",
"! ! I ! ! ! ! ! K E E K K E K ! E G E ~ ,.6.e.6.<.:.@.+.$.@.[ O.Y I Y U Y Y U Y Y R ' U f 2 3 p ,.8.$.@.~ W G E W W ^ W W W W ^ ",
"E E E E E E J J ! E ! ! ! E W W Q G E E ,.,.9.,.;.,.;.+.$.O.o.o.I Y I ^ Y Y Y Y L L Y A f 2 3 i ,.8.7.O.~ E G H E W W W W W W / ",
"! ! ~ ! ~ E ~ ~ ! ! E ! Q E Q W Q E ~ E ,.,.9.,.] +.{ [ #.O.o.o.I I Y I ! I ( ( ( Y ( I b p f g $.7.$.$.[ Q Q ~ / Q / ~ Q ^ W W ",
"5.7.8.@.@.[ +.+.+.[ +.+.+.O.[ +.7.5.,.5.,.5.3.,.^ W H W W ~ ! W W W W W W W W W +.+.+.=.+.;.X.+.+.+.+.@.+.+.#.+.+.#.#.o./ I ^ ^ ",
"8.8.9.,.1.@.@.@.} :.@.:.@.@.@.;.,.5.3.5.3.3.3.3.` ^ / W / ^ ( ( W ! ! ! ! ! ^ ^ +.;.#.>.;.#.;.+.+.@.+.#.#.#.;.+.+.:.>.../ U P _ ",
"3.9.0.3.:.<.*.:.*.:.:.;.*.:.:.*.6.6.3.3.6.3.3.3.^ ^ H U U ^ U L W W H W W W W W ;.+.;.;.;.;.;.;.;.;.;.;.;.;.>.<.<.<.=.=._ U U F ",
"1.3.1.<.<.*.*.*.<.*.*.<.<.*.*.<.<.2.2.2.2.2.1.1.F ^ U U U U Y U ^ ^ W W ^ ^ ^ ^ X.;.X.;.;.=.*.;.;.#.=.=.;.=.=.=.=.=.=.%.%.' _ T ",
"n j n j e e r r j f j j j j j j e e r < r r 3 1 < < 2 2 d j a d 3 f i i 3 f f 3 r f f f j f f r 1 1 3 e r 1 e 3 e e 2 e t r e e ",
"r y r 8 w ; 6 * d d e y r r t e * - ; ; ; * < ; : < : : a s s d d d f d f f d d r y d j h u y u ; ; ; ; ; ; ; ; ; - - 6 e h h s ",
"q h h 8 7 ; 6 - s h s h h q 8 h w 6 6 w w w w w < - ; : s s s s e d s s y y q d y h q h y h y y ; ; ; ; * 6 ; - : ; ; 7 h z z y ",
"h h h d d 8 8 e j s j j j j j f e e e w r w 1 w r e e d h j h h d h d h h d h h h h h z h z z h e 1 e 1 r e w t r e 6 r j j j j ",
"5.#.5.>.>.>.2.>.2.>.>.5.+.,.,.#.>.6.2.=.( L H ^ :.1.3.<._ S Y U L U U U U L L U U U U U U U U F <.1.<.1.1 c 1 1 1.<.1.1.:.:.8.@.",
"#.$.#.#.5.5.5.>.5.>.6.5.,.,.q.8.5.5.6.>.) W H Q 8.:.8.@.! J W W I ! ( Y ^ Y ^ ( U I Y W ( ( ^ W 1.9.9.0.3 v v v 1.1.3.9.8.7.7.7.",
"q.5.5.6.6.3.6.3.6.6.6.5.8.$.7.7.$.$.5.#.) E Q Q 8.,.w.,.~ W Q ! P I W ! P P ! W W P W W I I W ^ 1.0.0.1.3 r 1 f 4.4.1.9.9.9.8.8.",
",.5.w.5.,.>.1.<.2.>.=.=.t.e.e.e.#.$.5.#.[ ~ Q [ 8.8.q.$.~ W ! ! ! / / / ! W ^ ! ^ ! ^ ! W H W W <.1.<.<.M j f m 2.2.<.>.8.9.8.8.",
":.:.:.*.} ` &.` 1 , 3 3 *.:.1.@.5.$.5.7.7.7.@.7.8.7.q.$.Q E ~ ! ,.,.,.$.#.O.#.+.[ o.o.] [ Q Q / ^ ) _ ' S U A L ' ' ` ] :.:.:.:.",
":.@.} } ` H H F , O > 3 3.r.t.8.5.5.7.5.7.q.q.8.7.$.8.$.Q E E Q 8.q.q.8.$.@.O.#.@.@.@.o.~ Q Q W W P S I U Y ^ _ Y U Y ^ { } +.#.",
"} } *.} ` H H ^ 1 > > = 3.3.3.;.5.$.#.$.7.q.8.8.7.7.8.$.Q E E E $.$.$.$.O.o.o.o.O.O.@.o.Q E E Q W ! P J ( I S P W W W / { #.:.+.",
"} 7.7.*.{ H ` ` , > , O 3.,.,.$.$.5.#.$.q.7.8.7.8.7.8.$.~ E ~ ! 8.8.8.7.$.@.@.$.O.@.@.o.[ Q Q ) W ~ ! W ) ! W ( ! W ! ) +.$.1.@.",
"8.8.,.3.,.3.2.>.W S L P W ! W W ( W W ) $.q.w.$.8.,.w.,.! E ! W $.$.8.8.8.8.:.7.Q Q H ~ } O.@.[ $.$.$.5.$.$.8.8.:.7.8.8.$.@.8.7.",
"8.7.,.,.,.>.5.2.^ ^ ^ W ! ( ~ W ! P J / >.w.w.3.8.,.w.,./ W ( ( ,.,.,.,.,.3.,.,./ Q Q / @.:.@.+.#.$.#.,.7.$.$.7.,.7.7.8.8.8.8.8.",
"8.:.5.,.2.6.6.6.U Y I P W P W W Y P ^ ' >.r.0.3.3.1.3.2./ Y _ ^ 3.3.3.,.3.3.3.,.^ ^ W _ { ;.;.;.w.q.,.w.q.q.8.8.8.8.8.8.8.9.8.1.",
":.:.>.>.2.2.2.2.R U U _ ( ( ^ ^ _ T U ' ;.2.2.<.3.<.1.2.T U U Y <.1.1.1.1.1.<.1.` ^ _ ' ] <.*.] =.>.=.;.1.3.3.:.@.:.@.:.:.:.1.1.",
"f f p f f d f d e e r 1 f g v f : ; ; 2 e e r e V n V x 2 ; : ; d f f f f f f r r e 3 r f f f y @ @ @ % * 1 1 1 3 1 1 1 v u r r ",
"3 e i d r r h s y r t n j m n m w e : : w * < : B j V j 8 ; 8 ; r r y r f y r r j j j r u j j h       + & w t * < ; < ; w r e e ",
"h h h s l z z l l y l n n l n n 6 8 6 t w 6 w w B h z j 6 ; 7 - y h u y y h y y h u r y y h y q # . . # 9 k t 0 t : 6 0 z z z k ",
"y y s h l l l l z l l l B B B B 6 7 6 6 6 6 0 t B x B z 0 6 8 5 y y h y j y h y y h h y y j h q $ # . $ 9 k k 4 t 6 6 q k z z k "
};
